{"glyphs":{"0":{"ha":603,"x_min":0,"x_max":0,"o":"m 263 831 b 244 811 249 831 244 824 l 244 197 b 264 176 244 182 247 176 l 338 176 b 357 197 354 176 357 182 l 357 811 b 339 831 357 824 353 831 m 42 868 b 178 1007 42 947 86 1007 l 425 1007 b 561 868 517 1007 561 947 l 561 139 b 425 0 561 60 517 0 l 178 0 b 42 139 86 0 42 60 "},"1":{"ha":406,"x_min":0,"x_max":0,"o":"m 99 1007 l 314 1007 l 314 188 l 382 188 l 382 0 l 42 0 l 42 188 l 107 188 l 107 819 l 24 819 "},"2":{"ha":546,"x_min":0,"x_max":0,"o":"m 504 626 b 443 519 504 575 489 550 l 253 368 b 243 344 244 363 243 354 l 243 188 l 486 188 l 450 0 l 42 0 l 42 363 b 107 501 42 426 57 469 l 297 647 b 311 669 310 656 311 661 l 311 801 b 292 819 311 814 303 819 l 46 819 l 81 1007 l 386 1007 b 504 883 453 1007 504 963 "},"3":{"ha":503,"x_min":0,"x_max":0,"o":"m 63 1007 l 319 1007 b 456 875 422 1007 456 967 l 456 596 b 378 507 456 550 443 513 b 461 407 446 507 461 461 l 461 156 b 304 0 461 44 419 0 l 64 0 l 29 188 l 231 188 b 258 213 249 188 258 189 l 258 378 b 233 403 258 393 256 403 l 79 403 l 79 576 l 231 576 b 258 604 253 576 258 582 l 258 794 b 235 819 258 815 250 819 l 28 819 l 63 1007 "},"4":{"ha":631,"x_min":0,"x_max":0,"o":"m 260 1007 l 540 1007 l 540 343 l 596 343 l 596 183 l 540 183 l 540 0 l 342 0 l 342 183 l 35 183 l 35 411 l 260 972 m 342 343 l 342 731 l 228 401 l 228 343 "},"5":{"ha":538,"x_min":0,"x_max":0,"o":"m 86 0 l 51 188 l 276 188 b 293 203 286 188 293 193 l 293 429 b 279 443 293 439 286 443 l 94 443 l 42 503 l 42 1006 l 440 1006 l 475 819 l 239 819 l 239 606 l 390 606 b 496 508 451 606 496 561 l 496 151 b 340 0 496 40 456 0 "},"6":{"ha":593,"x_min":0,"x_max":0,"o":"m 244 193 b 260 176 244 182 249 176 l 342 176 b 357 193 351 176 357 181 l 357 468 b 344 482 357 476 353 482 l 244 482 m 199 0 b 42 156 83 0 42 44 l 42 885 b 161 1007 42 957 89 1007 l 472 1007 l 507 819 l 261 819 b 244 800 250 819 244 811 l 244 631 l 446 631 b 551 524 513 631 551 597 l 551 156 b 394 0 551 44 510 0 "},"7":{"ha":528,"x_min":0,"x_max":0,"o":"m 49 1007 l 514 1007 l 476 882 l 250 0 l 40 0 l 263 819 l 14 819 "},"8":{"ha":626,"x_min":0,"x_max":0,"o":"m 276 831 b 253 808 258 831 253 824 l 253 622 b 282 597 253 603 261 597 l 346 597 b 374 622 367 597 374 603 l 374 808 b 350 831 374 824 371 831 l 276 831 m 346 175 b 374 203 363 175 374 178 l 374 421 b 347 444 374 436 368 444 l 279 444 b 253 421 261 444 253 436 l 253 203 b 281 175 253 178 264 175 l 346 175 m 574 646 b 506 528 574 594 563 553 b 585 414 563 515 585 461 l 585 158 b 424 0 585 47 539 0 l 203 0 b 42 158 88 0 42 47 l 42 414 b 125 528 42 461 71 518 b 57 646 71 546 57 599 l 57 853 b 224 1007 57 964 108 1007 l 407 1007 b 574 853 522 1007 574 964 "},"9":{"ha":594,"x_min":0,"x_max":0,"o":"m 350 814 b 335 831 350 825 346 831 l 253 831 b 238 814 243 831 238 826 l 238 517 b 250 503 238 508 242 503 l 350 503 m 553 156 b 396 0 553 44 511 0 l 107 0 l 72 188 l 333 188 b 350 207 344 188 350 196 l 350 350 l 147 350 b 42 460 86 350 42 386 l 42 883 b 160 1007 42 963 93 1007 l 435 1007 b 553 883 501 1007 553 963 "}," ":{"ha":174,"x_min":0,"x_max":0,"o":""},"E":{"ha":496,"x_min":0,"x_max":0,"o":"m 42 1007 l 433 1007 l 468 819 l 249 819 l 249 581 l 415 581 l 415 407 l 249 407 l 249 188 l 460 188 l 425 0 l 42 0 "},"F":{"ha":489,"x_min":0,"x_max":0,"o":"m 42 1007 l 433 1007 l 468 819 l 249 819 l 249 581 l 415 581 l 415 407 l 249 407 l 249 0 l 42 0 "},"G":{"ha":588,"x_min":0,"x_max":0,"o":"m 42 885 b 161 1007 42 958 82 1007 l 449 1007 l 483 819 l 263 819 b 244 800 249 819 244 813 l 244 203 b 263 183 244 190 249 183 l 354 183 l 354 581 l 550 581 l 550 0 l 199 0 b 42 156 83 0 42 44 "},"H":{"ha":604,"x_min":0,"x_max":0,"o":"m 563 0 l 357 0 l 357 403 l 247 403 l 247 0 l 42 0 l 42 1007 l 247 1007 l 247 576 l 357 576 l 357 1007 l 563 1007 "},"Z":{"ha":515,"x_min":0,"x_max":0,"o":"m 285 188 l 474 188 l 439 0 l 14 0 l 240 819 l 31 819 l 65 1007 l 501 1007 "},"Y":{"ha":626,"x_min":0,"x_max":0,"o":"m 419 0 l 207 0 l 207 256 l 14 1007 l 222 1007 l 313 532 l 404 1007 l 613 1007 l 419 256 "},"X":{"ha":590,"x_min":0,"x_max":0,"o":"m 433 525 l 576 0 l 372 0 l 294 354 l 218 0 l 14 0 l 157 525 l 19 1007 l 219 1007 l 294 653 l 372 1007 l 571 1007 "},"W":{"ha":876,"x_min":0,"x_max":0,"o":"m 657 1007 l 863 1007 l 704 0 l 521 0 l 438 525 l 356 0 l 172 0 l 14 1007 l 219 1007 l 283 421 l 365 1007 l 511 1007 l 592 421 "},"V":{"ha":610,"x_min":0,"x_max":0,"o":"m 392 1007 l 596 1007 l 410 0 l 200 0 l 14 1007 l 218 1007 l 236 878 l 304 357 l 374 881 "},"U":{"ha":604,"x_min":0,"x_max":0,"o":"m 199 0 b 42 156 83 0 42 44 l 42 1007 l 247 1007 l 247 199 b 267 176 247 183 250 176 l 338 176 b 357 199 354 176 357 183 l 357 1007 l 563 1007 l 563 156 b 406 0 563 44 521 0 "},"T":{"ha":503,"x_min":0,"x_max":0,"o":"m 439 1007 l 489 819 l 354 819 l 354 0 l 149 0 l 149 819 l 14 819 l 67 1007 "},"S":{"ha":536,"x_min":0,"x_max":0,"o":"m 92 0 l 56 188 l 272 188 b 296 208 290 188 296 193 l 296 392 b 258 421 296 419 286 421 l 154 421 b 42 535 94 421 42 435 l 42 876 b 178 1007 42 956 83 1007 l 456 1007 l 490 819 l 263 819 b 238 797 246 819 238 813 l 238 614 b 268 588 238 593 247 588 l 394 588 b 494 485 458 588 494 560 l 494 153 b 340 0 494 42 456 0 "},"R":{"ha":604,"x_min":0,"x_max":0,"o":"m 243 831 l 243 483 l 342 483 b 361 504 357 483 361 489 l 361 810 b 342 831 361 822 356 831 m 560 410 b 469 321 560 365 528 321 l 575 0 l 367 0 l 269 321 l 243 321 l 243 0 l 42 0 l 42 1007 l 424 1007 b 560 876 518 1007 560 956 "},"Q":{"ha":610,"x_min":0,"x_max":0,"o":"m 264 831 b 244 810 250 831 244 822 l 244 197 b 264 176 244 182 247 176 l 344 176 b 364 197 361 176 364 182 l 364 811 b 346 831 364 824 360 831 m 432 1007 b 568 876 526 1007 568 956 l 568 156 b 411 0 568 44 526 0 l 385 0 l 385 -81 l 224 -81 l 224 0 l 199 0 b 42 156 83 0 42 44 l 42 876 b 178 1007 42 956 83 1007 "},"P":{"ha":594,"x_min":0,"x_max":0,"o":"m 242 831 l 242 435 l 342 435 b 361 456 358 435 361 440 l 361 811 b 343 831 361 824 357 831 m 438 1007 b 557 885 517 1007 557 958 l 557 403 b 414 268 557 326 526 268 l 242 268 l 242 0 l 42 0 l 42 1007 "},"O":{"ha":606,"x_min":0,"x_max":0,"o":"m 263 831 b 244 811 249 831 244 824 l 244 197 b 264 176 244 182 247 176 l 340 176 b 360 197 357 176 360 182 l 360 811 b 342 831 360 824 356 831 m 564 143 b 419 0 564 67 532 0 l 186 0 b 42 143 74 0 42 67 l 42 876 b 178 1007 42 956 83 1007 l 428 1007 b 564 876 522 1007 564 956 "},"N":{"ha":585,"x_min":0,"x_max":0,"o":"m 42 1007 l 233 1007 l 336 603 l 336 1007 l 543 1007 l 543 0 l 336 0 l 228 421 l 228 0 l 42 0 "},"M":{"ha":729,"x_min":0,"x_max":0,"o":"m 238 475 l 238 0 l 42 0 l 42 1007 l 254 1007 l 364 582 l 474 1007 l 688 1007 l 688 0 l 492 0 l 492 475 l 364 72 "},"L":{"ha":472,"x_min":0,"x_max":0,"o":"m 42 1007 l 249 1007 l 249 188 l 451 188 l 417 0 l 42 0 "},"K":{"ha":603,"x_min":0,"x_max":0,"o":"m 247 575 l 278 575 l 381 1007 l 589 1007 l 468 543 l 588 0 l 367 0 l 288 415 l 247 415 l 247 0 l 42 0 l 42 1007 l 247 1007 l 247 575 "},"J":{"ha":588,"x_min":0,"x_max":0,"o":"m 38 581 l 233 581 l 233 200 b 251 181 233 188 238 181 l 325 181 b 343 201 339 181 343 189 l 343 819 l 125 819 l 160 1007 l 546 1007 l 546 144 b 410 0 546 65 497 0 l 171 0 b 38 129 92 0 38 50 "},"I":{"ha":285,"x_min":0,"x_max":0,"o":"m 42 1007 l 243 1007 l 243 0 l 42 0 "},"`":{"ha":535,"x_min":0,"x_max":0,"o":"m 69 1265 l 285 1265 l 465 1097 l 318 1097 "},"{":{"ha":363,"x_min":0,"x_max":0,"o":"m 0 536 b 104 733 124 539 107 650 b 332 1113 97 946 39 1113 l 390 1113 l 390 1049 b 300 743 256 1053 296 842 b 179 506 306 649 286 521 b 300 268 286 489 306 363 b 390 -39 296 169 256 -43 l 390 -100 l 332 -100 b 104 278 39 -100 97 64 b 0 474 107 360 124 471 "},"|":{"ha":285,"x_min":0,"x_max":0,"o":"m 229 1038 l 229 -318 l 56 -318 l 56 1038 "},"}":{"ha":363,"x_min":0,"x_max":0,"o":"m 363 474 b 258 278 239 471 256 360 b 28 -100 265 64 321 -100 l -28 -100 l -28 -39 b 61 268 107 -43 67 169 b 182 506 57 363 76 489 b 61 743 76 521 57 649 b -28 1049 67 842 107 1053 l -28 1113 l 28 1113 b 258 733 321 1113 265 946 b 363 536 256 650 239 539 "},"~":{"ha":592,"x_min":0,"x_max":0,"o":"m 549 613 b 394 386 560 479 508 386 b 265 439 335 386 301 415 b 139 388 211 474 140 472 l 43 388 b 201 614 38 529 107 614 b 392 539 285 614 339 539 b 453 613 425 539 456 553 "},"€":{"ha":546,"x_min":0,"x_max":0,"o":"m 518 188 l 481 0 l 201 0 b 47 153 86 0 47 42 l 47 325 l 0 325 l 0 451 l 47 451 l 47 531 l 0 531 l 0 658 l 47 658 l 47 886 b 169 1010 47 965 101 1010 l 481 1010 l 518 822 l 268 822 b 250 803 254 822 250 815 l 250 658 l 504 658 l 469 531 l 250 531 l 250 451 l 456 451 l 421 325 l 250 325 l 250 207 b 268 188 250 194 254 188 "},"‚":{"ha":275,"x_min":0,"x_max":0,"o":"m 86 201 l 254 201 l 146 -194 l 21 -194 "},"ƒ":{"ha":688,"x_min":0,"x_max":0,"o":"m 574 822 b 517 774 540 822 524 803 l 485 650 l 608 650 l 561 533 l 450 533 l 328 39 b 54 -106 288 -119 194 -114 l 0 -6 b 133 60 74 -6 113 -19 l 258 533 l 197 533 l 236 650 l 286 650 l 350 904 b 492 1010 369 985 435 1010 l 625 1010 l 660 822 "},"„":{"ha":494,"x_min":0,"x_max":0,"o":"m 64 201 l 232 201 l 157 -194 l 35 -194 m 300 201 l 469 201 l 369 -194 l 242 -194 "},"…":{"ha":956,"x_min":0,"x_max":0,"o":"m 69 93 b 178 201 69 153 118 201 b 286 93 238 201 286 153 b 178 -14 286 33 238 -14 b 69 93 118 -14 69 33 m 369 93 b 478 201 369 153 418 201 b 586 93 538 201 586 153 b 478 -14 586 33 538 -14 b 369 93 418 -14 369 33 m 669 93 b 778 201 669 153 718 201 b 886 93 838 201 886 153 b 778 -14 886 33 838 -14 b 669 93 718 -14 669 33 "},"†":{"ha":664,"x_min":0,"x_max":0,"o":"m 622 707 b 521 604 622 651 578 604 b 426 667 481 604 444 632 b 503 468 360 663 375 468 b 331 -106 375 468 331 -106 b 164 468 331 -106 289 468 b 236 667 289 468 303 661 b 143 604 219 632 185 604 b 42 707 86 604 42 651 b 143 811 42 763 86 811 b 239 736 186 811 231 778 b 289 832 275 742 293 768 b 231 928 254 850 231 885 b 331 1028 231 983 278 1028 b 433 928 386 1028 433 983 b 375 832 433 885 408 850 b 426 735 369 767 389 742 b 521 811 435 778 478 811 b 622 707 578 811 622 763 "},"‡":{"ha":664,"x_min":0,"x_max":0,"o":"m 622 285 b 521 181 622 229 578 181 b 426 257 478 181 435 214 b 375 160 389 250 369 225 b 433 64 408 142 433 107 b 331 -36 433 8 386 -36 b 231 64 278 -36 231 8 b 289 160 231 107 254 142 b 239 256 293 224 275 250 b 143 181 231 214 186 181 b 42 285 86 181 42 229 b 143 388 42 340 86 388 b 236 325 185 388 219 360 b 164 496 303 331 289 496 b 236 667 289 496 303 661 b 143 604 219 632 185 604 b 42 707 86 604 42 651 b 143 811 42 763 86 811 b 239 736 186 811 231 778 b 289 832 275 742 293 768 b 231 928 254 850 231 885 b 331 1028 231 983 278 1028 b 433 928 386 1028 433 983 b 375 832 433 885 408 850 b 426 735 369 767 389 742 b 521 811 435 778 478 811 b 622 707 578 811 622 763 b 521 604 622 651 578 604 b 426 667 481 604 444 632 b 503 496 360 663 375 496 b 426 325 375 496 360 329 b 521 388 444 360 481 388 b 622 285 578 388 622 340 "},"ˆ":{"ha":643,"x_min":0,"x_max":0,"o":"m 403 1274 l 560 1092 l 396 1092 l 321 1192 l 246 1092 l 85 1092 l 240 1274 "},"‰":{"ha":1396,"x_min":0,"x_max":0,"o":"m 1139 246 b 1175 124 1139 142 1147 124 b 1213 246 1203 124 1213 142 b 1175 368 1213 350 1203 368 b 1139 246 1147 368 1139 350 m 1354 246 b 1175 -15 1354 29 1285 -15 b 996 246 1065 -15 996 29 b 1175 507 996 463 1065 507 b 1354 246 1285 507 1354 463 m 718 246 b 754 124 718 142 726 124 b 792 246 782 124 792 142 b 754 368 792 350 782 368 b 718 246 726 368 718 350 m 933 246 b 754 -15 933 29 864 -15 b 575 246 644 -15 575 29 b 754 507 575 463 644 507 b 933 246 864 507 933 463 m 183 763 b 221 640 183 658 193 640 b 257 763 249 640 257 658 b 221 885 257 867 249 885 b 183 763 193 885 183 867 m 400 763 b 221 501 400 546 331 501 b 42 763 111 501 42 546 b 221 1024 42 979 111 1024 b 400 763 331 1024 400 979 m 758 1017 l 364 -7 l 214 -7 l 613 1017 "},"‹":{"ha":367,"x_min":0,"x_max":0,"o":"m 183 654 l 353 654 l 185 379 l 353 104 l 183 104 l 21 379 "},"Ž":{"ha":515,"x_min":0,"x_max":0,"o":"m 285 188 l 474 188 l 439 0 l 14 0 l 240 822 l 31 822 l 65 1010 l 501 1010 m 194 1058 l 39 1240 l 200 1240 l 275 1140 l 350 1240 l 514 1240 l 357 1058 "},"‘":{"ha":275,"x_min":0,"x_max":0,"o":"m 254 639 l 129 639 l 21 1035 l 189 1035 "},"’":{"ha":275,"x_min":0,"x_max":0,"o":"m 86 1035 l 254 1035 l 146 639 l 21 639 "},"“":{"ha":499,"x_min":0,"x_max":0,"o":"m 467 639 l 339 639 l 261 1035 l 433 1035 m 253 639 l 124 639 l 28 1035 l 199 1035 "},"”":{"ha":499,"x_min":0,"x_max":0,"o":"m 65 1035 l 238 1035 l 160 639 l 32 639 m 300 1035 l 471 1035 l 375 639 l 246 639 "},"•":{"ha":567,"x_min":0,"x_max":0,"o":"m 42 461 b 283 706 42 597 149 706 b 525 461 417 706 525 597 b 283 217 525 326 417 217 b 42 461 149 217 42 326 "},"–":{"ha":671,"x_min":0,"x_max":0,"o":"m 56 571 l 629 571 l 615 406 l 42 406 "},"—":{"ha":879,"x_min":0,"x_max":0,"o":"m 56 571 l 838 571 l 824 406 l 42 406 "},"˜":{"ha":643,"x_min":0,"x_max":0,"o":"m 556 1281 b 418 1104 565 1176 522 1104 b 226 1161 335 1104 297 1161 b 175 1103 194 1161 175 1143 l 88 1103 b 233 1281 83 1213 146 1281 b 415 1221 310 1281 367 1221 b 468 1281 447 1221 471 1243 "},"™":{"ha":808,"x_min":0,"x_max":0,"o":"m 313 918 l 236 918 l 236 504 l 118 504 l 118 918 l 42 918 l 69 1010 l 285 1010 m 767 504 l 644 504 l 644 772 l 565 544 l 478 772 l 478 504 l 364 504 l 364 1010 l 486 1010 l 565 789 l 636 1010 l 767 1010 "},"š":{"ha":1108,"x_min":0,"x_max":0,"o":"m 746 336 b 315 336 603 300 460 300 b 531 190 351 275 424 190 b 746 336 633 190 708 275 m 833 472 l 228 472 l 301 356 b 758 356 454 319 606 321 m 449 629 b 385 779 425 679 415 736 b 307 735 374 793 301 742 l 407 610 b 449 629 413 603 451 624 m 582 515 l 531 639 l 481 515 m 753 735 b 676 779 758 742 686 793 b 613 629 643 736 633 679 b 654 610 607 624 649 603 m 913 515 b 531 133 913 306 740 133 b 147 515 321 133 147 306 b 531 897 147 726 321 897 b 913 515 740 897 913 726 m 940 515 b 531 926 940 742 757 926 b 118 515 304 926 118 742 b 531 104 118 290 304 104 b 940 515 757 104 940 290 m 982 144 l 946 144 l 946 49 l 919 49 l 919 144 l 885 144 l 885 167 l 982 167 m 1006 515 b 531 39 1006 254 792 39 b 56 515 269 39 56 254 b 531 992 56 778 269 992 b 1006 515 792 992 1006 778 m 1106 49 l 1085 49 l 1085 144 l 1061 49 l 1039 49 l 1015 144 l 1015 49 l 993 49 l 993 167 l 1028 167 l 1051 75 l 1071 167 l 1106 167 "},"›":{"ha":368,"x_min":0,"x_max":0,"o":"m 354 379 l 186 104 l 21 104 l 185 379 l 21 654 l 186 654 "},"œ":{"ha":1108,"x_min":0,"x_max":0,"o":"m 746 336 b 315 336 603 300 460 300 b 531 190 351 275 424 190 b 746 336 633 190 708 275 m 833 472 l 228 472 l 301 356 b 758 356 454 319 606 321 m 449 629 b 385 779 425 679 415 736 b 307 735 374 793 301 742 l 407 610 b 449 629 413 603 451 624 m 582 515 l 531 639 l 481 515 m 753 735 b 676 779 758 742 686 793 b 613 629 643 736 633 679 b 654 610 607 624 649 603 m 913 515 b 531 133 913 306 740 133 b 147 515 321 133 147 306 b 531 897 147 726 321 897 b 913 515 740 897 913 726 m 940 515 b 531 926 940 742 757 926 b 118 515 304 926 118 742 b 531 104 118 290 304 104 b 940 515 757 104 940 290 m 982 144 l 946 144 l 946 49 l 919 49 l 919 144 l 885 144 l 885 167 l 982 167 m 1006 515 b 531 39 1006 254 792 39 b 56 515 269 39 56 254 b 531 992 56 778 269 992 b 1006 515 792 992 1006 778 m 1106 49 l 1085 49 l 1085 144 l 1061 49 l 1039 49 l 1015 144 l 1015 49 l 993 49 l 993 167 l 1028 167 l 1051 75 l 1071 167 l 1106 167 "},"ž":{"ha":1108,"x_min":0,"x_max":0,"o":"m 746 336 b 315 336 603 300 460 300 b 531 190 351 275 424 190 b 746 336 633 190 708 275 m 833 472 l 228 472 l 301 356 b 758 356 454 319 606 321 m 449 629 b 385 779 425 679 415 736 b 307 735 374 793 301 742 l 407 610 b 449 629 413 603 451 624 m 582 515 l 531 639 l 481 515 m 753 735 b 676 779 758 742 686 793 b 613 629 643 736 633 679 b 654 610 607 624 649 603 m 913 515 b 531 133 913 306 740 133 b 147 515 321 133 147 306 b 531 897 147 726 321 897 b 913 515 740 897 913 726 m 940 515 b 531 926 940 742 757 926 b 118 515 304 926 118 742 b 531 104 118 290 304 104 b 940 515 757 104 940 290 m 982 144 l 946 144 l 946 49 l 919 49 l 919 144 l 885 144 l 885 167 l 982 167 m 1006 515 b 531 39 1006 254 792 39 b 56 515 269 39 56 254 b 531 992 56 778 269 992 b 1006 515 792 992 1006 778 m 1106 49 l 1085 49 l 1085 144 l 1061 49 l 1039 49 l 1015 144 l 1015 49 l 993 49 l 993 167 l 1028 167 l 1051 75 l 1071 167 l 1106 167 "},"Ÿ":{"ha":626,"x_min":0,"x_max":0,"o":"m 419 0 l 207 0 l 207 256 l 14 1007 l 222 1007 l 313 532 l 404 1007 l 613 1007 l 419 256 m 74 1150 b 176 1254 74 1207 118 1254 b 278 1150 233 1254 278 1207 b 176 1046 278 1093 233 1046 b 74 1150 118 1046 74 1093 m 349 1150 b 450 1254 349 1207 393 1254 b 553 1150 507 1254 553 1207 b 450 1046 553 1093 507 1046 b 349 1150 393 1046 349 1093 "}," ":{"ha":694,"x_min":0,"x_max":0,"o":""},"¡":{"ha":279,"x_min":0,"x_max":0,"o":"m 75 507 l 201 507 l 251 -236 l 28 -236 m 31 678 b 139 785 31 738 79 785 b 247 678 199 785 247 738 b 139 569 247 618 199 569 b 31 678 79 569 31 618 "},"¢":{"ha":424,"x_min":0,"x_max":0,"o":"m 140 188 b 38 292 71 188 38 222 l 38 718 b 140 822 38 788 71 822 l 178 822 l 178 1010 l 274 1010 l 274 822 l 368 822 l 403 635 l 221 635 b 204 617 211 635 204 631 l 204 393 b 221 375 204 379 211 375 l 403 375 l 368 188 l 274 188 l 274 0 l 178 0 l 178 188 "},"£":{"ha":547,"x_min":0,"x_max":0,"o":"m 78 882 b 201 1010 78 971 138 1010 l 475 1010 l 510 822 l 300 822 b 281 801 288 822 281 817 l 281 568 l 483 568 l 451 426 l 281 426 l 281 188 l 526 188 l 490 0 l 44 0 l 44 188 l 78 188 l 78 426 l 28 426 l 46 568 l 78 568 l 78 882 "},"¤":{"ha":631,"x_min":0,"x_max":0,"o":"m 236 504 b 315 354 236 410 244 354 b 393 504 385 354 393 410 b 315 656 393 599 385 656 b 236 504 244 656 236 599 m 544 504 b 518 322 544 443 538 382 l 589 257 l 510 175 l 438 240 b 315 219 393 224 361 219 b 193 240 269 219 238 224 l 121 175 l 42 257 l 111 322 b 86 504 93 382 86 443 b 111 686 86 567 93 626 l 42 751 l 121 833 l 193 769 b 315 789 238 785 269 789 b 438 769 361 789 393 785 l 510 833 l 589 751 l 518 686 b 544 504 538 626 544 567 "},"¥":{"ha":683,"x_min":0,"x_max":0,"o":"m 101 267 l 239 267 l 239 318 l 85 318 l 103 442 l 217 442 l 14 1010 l 226 1010 l 342 618 l 457 1010 l 669 1010 l 467 442 l 603 442 l 585 318 l 442 318 l 442 267 l 601 267 l 585 143 l 442 143 l 442 0 l 239 0 l 239 143 l 85 143 "},"¦":{"ha":285,"x_min":0,"x_max":0,"o":"m 229 -318 l 56 -318 l 56 225 l 229 225 m 229 494 l 56 494 l 56 1038 l 229 1038 "},"§":{"ha":581,"x_min":0,"x_max":0,"o":"m 379 463 b 319 581 379 518 350 557 l 251 581 b 204 542 210 581 204 568 l 204 501 b 219 460 204 485 208 471 b 250 426 225 453 242 433 l 356 426 b 379 463 376 426 379 449 m 539 443 b 389 321 539 385 501 321 l 379 321 b 428 126 411 285 428 210 b 286 0 428 68 400 0 l 72 0 l 72 138 l 239 138 b 263 161 258 138 263 147 b 42 486 261 338 42 279 l 42 582 b 201 701 42 642 101 701 b 156 792 175 725 156 758 l 156 889 b 286 1010 156 925 183 1003 l 499 1010 l 499 886 l 363 886 b 319 843 322 886 319 869 l 319 813 b 331 771 319 796 321 783 b 385 728 344 756 364 742 b 539 443 453 686 539 664 "},"¨":{"ha":696,"x_min":0,"x_max":0,"o":"m 108 1200 b 211 1304 108 1257 153 1304 b 313 1200 268 1304 313 1257 b 211 1096 313 1143 268 1096 b 108 1200 153 1096 108 1143 m 383 1200 b 485 1304 383 1257 428 1304 b 588 1200 542 1304 588 1257 b 485 1096 588 1143 542 1096 b 383 1200 428 1096 383 1143 "},"©":{"ha":1111,"x_min":0,"x_max":0,"o":"m 557 1010 b 1065 503 831 1010 1065 796 b 557 -8 1065 206 831 -8 b 46 503 281 -8 46 206 b 557 1010 46 796 281 1010 m 557 924 b 149 503 326 924 149 743 b 557 79 149 257 326 79 b 963 503 785 79 963 257 b 557 924 963 743 785 924 m 822 407 b 574 190 796 274 697 190 b 275 504 393 190 275 326 b 569 814 275 682 388 814 b 821 603 697 814 801 739 l 731 603 b 571 726 715 676 654 726 b 378 506 446 726 378 629 b 574 278 378 385 453 278 b 731 407 658 278 719 331 "},"ª":{"ha":401,"x_min":0,"x_max":0,"o":"m 175 899 b 164 888 168 899 164 896 l 164 640 b 175 631 164 632 168 631 l 238 631 l 238 899 m 360 513 l 238 513 l 238 546 l 210 513 l 108 513 b 42 579 68 513 42 535 l 42 940 b 111 1010 42 988 64 1010 l 360 1010 "},"«":{"ha":604,"x_min":0,"x_max":0,"o":"m 425 654 l 590 654 l 426 379 l 590 104 l 425 104 l 257 379 m 183 654 l 353 654 l 185 379 l 353 104 l 183 104 l 21 379 "},"¬":{"ha":608,"x_min":0,"x_max":0,"o":"m 56 626 l 567 626 l 567 271 l 388 271 l 388 461 l 42 461 "},"­":{"ha":463,"x_min":0,"x_max":0,"o":"m 56 571 l 421 571 l 407 406 l 42 406 "},"®":{"ha":1111,"x_min":0,"x_max":0,"o":"m 557 1010 b 1065 503 831 1010 1065 796 b 557 -8 1065 206 831 -8 b 46 503 281 -8 46 206 b 557 1010 46 796 281 1010 m 557 924 b 149 503 326 924 149 743 b 557 79 149 257 326 79 b 963 503 785 79 963 257 b 557 924 963 743 785 924 m 449 208 l 363 208 l 363 796 l 583 796 b 785 628 718 796 785 743 b 638 467 782 524 724 478 l 803 208 l 704 208 l 550 464 l 449 464 m 556 535 b 699 635 631 535 699 540 b 571 725 699 711 632 725 l 449 725 l 449 535 "},"¯":{"ha":599,"x_min":0,"x_max":0,"o":"m 101 1189 l 497 1189 l 529 1061 l 69 1061 "},"°":{"ha":433,"x_min":0,"x_max":0,"o":"m 42 853 b 224 1035 42 953 124 1035 b 406 853 324 1035 406 953 b 224 671 406 753 324 671 b 42 853 124 671 42 753 m 154 851 b 222 783 154 813 183 783 b 292 851 261 783 292 813 b 222 921 292 890 261 921 b 154 851 183 921 154 890 "},"±":{"ha":663,"x_min":0,"x_max":0,"o":"m 42 588 l 264 588 l 264 821 l 401 821 l 401 588 l 621 588 l 621 451 l 401 451 l 401 278 l 621 278 l 621 140 l 42 140 l 42 278 l 264 278 l 264 451 l 42 451 "},"²":{"ha":365,"x_min":0,"x_max":0,"o":"m 338 753 b 297 682 338 718 328 701 l 169 581 b 163 564 164 576 163 571 l 163 458 l 325 458 l 301 333 l 28 333 l 28 576 b 72 669 28 619 38 647 l 199 767 b 208 782 207 772 208 776 l 208 872 b 196 885 208 881 203 885 l 31 885 l 54 1010 l 247 1010 b 338 919 308 1010 338 981 "},"³":{"ha":360,"x_min":0,"x_max":0,"o":"m 53 333 l 29 458 l 164 458 b 183 476 176 458 183 460 l 183 586 b 167 603 183 597 181 603 l 63 603 l 63 719 l 164 719 b 183 738 179 719 183 724 l 183 868 b 167 885 183 882 178 885 l 28 885 l 51 1010 l 225 1010 b 315 921 285 1010 315 982 l 315 732 b 263 674 315 701 307 676 b 318 606 308 674 318 642 l 318 424 b 228 333 318 363 289 333 "},"´":{"ha":535,"x_min":0,"x_max":0,"o":"m 217 1097 l 69 1097 l 250 1265 l 465 1265 "},"µ":{"ha":563,"x_min":0,"x_max":0,"o":"m 336 50 b 254 0 326 17 296 0 l 224 0 l 224 -267 l 42 -267 l 42 743 l 226 743 l 226 183 b 243 167 226 171 233 167 l 319 167 b 336 183 329 167 336 171 l 336 743 l 521 743 l 521 0 l 336 0 "},"μ":{"ha":563,"x_min":0,"x_max":0,"o":"m 336 0 l 521 0 l 521 743 l 336 743 l 336 183 b 319 167 336 171 329 167 l 243 167 b 226 183 233 167 226 171 l 226 743 l 42 743 l 42 -267 l 224 -267 l 224 0 l 254 0 b 336 50 296 0 326 17 "},"¶":{"ha":807,"x_min":0,"x_max":0,"o":"m 765 828 l 728 828 l 728 0 l 547 0 l 547 828 l 442 828 l 442 0 l 267 0 l 267 360 l 229 360 b 42 508 76 360 42 436 l 42 846 b 204 1010 42 951 108 1010 l 765 1010 "},"·":{"ha":300,"x_min":0,"x_max":0,"o":"m 42 504 b 150 613 42 564 90 613 b 258 504 210 613 258 564 b 150 397 258 444 210 397 b 42 504 90 397 42 444 "},"¸":{"ha":471,"x_min":0,"x_max":0,"o":"m 90 -182 b 186 -215 111 -200 153 -215 b 251 -164 221 -215 251 -200 b 204 -119 251 -140 229 -119 b 149 -132 186 -119 168 -122 l 97 -101 l 179 18 l 272 18 l 222 -62 b 261 -58 235 -60 249 -58 b 382 -165 328 -58 382 -96 b 221 -299 382 -256 303 -297 b 61 -253 165 -300 106 -285 "},"¹":{"ha":296,"x_min":0,"x_max":0,"o":"m 79 1010 l 222 1010 l 222 458 l 268 458 l 268 333 l 40 333 l 40 458 l 85 458 l 85 885 l 28 885 "},"º":{"ha":401,"x_min":0,"x_max":0,"o":"m 226 626 b 238 636 233 626 238 628 l 238 892 b 226 903 238 900 233 903 l 175 903 b 164 892 168 903 164 900 l 164 636 b 175 626 164 628 168 626 m 42 940 b 111 1010 42 988 64 1010 l 292 1010 b 360 940 338 1010 360 988 l 360 582 b 292 513 360 536 338 513 l 111 513 b 42 582 64 513 42 536 "},"»":{"ha":604,"x_min":0,"x_max":0,"o":"m 354 379 l 186 104 l 21 104 l 185 379 l 21 654 l 186 654 m 590 379 l 428 104 l 258 104 l 426 379 l 258 654 l 428 654 "},"¼":{"ha":1043,"x_min":0,"x_max":0,"o":"m 83 1010 l 244 1010 l 244 393 l 296 393 l 296 253 l 40 253 l 40 393 l 90 393 l 90 869 l 28 869 m 714 1031 l 403 -19 l 281 -19 l 590 1031 m 763 757 l 974 757 l 974 257 l 1015 257 l 1015 138 l 974 138 l 974 0 l 825 0 l 825 138 l 594 138 l 594 308 l 763 729 m 825 257 l 825 547 l 739 301 l 739 257 "},"½":{"ha":1064,"x_min":0,"x_max":0,"o":"m 1029 469 b 983 389 1029 431 1018 413 l 842 276 b 833 258 835 272 833 265 l 833 140 l 1017 140 l 989 0 l 683 0 l 683 272 b 732 376 683 319 694 351 l 875 485 b 885 501 883 492 885 496 l 885 603 b 871 617 885 613 879 617 l 686 617 l 713 757 l 929 757 b 1029 656 996 757 1029 724 m 83 1010 l 244 1010 l 244 393 l 296 393 l 296 253 l 40 253 l 40 393 l 90 393 l 90 869 l 28 869 m 714 1031 l 403 -19 l 281 -19 l 590 1031 "},"¾":{"ha":1088,"x_min":0,"x_max":0,"o":"m 760 1031 l 453 -19 l 331 -19 l 636 1031 m 807 757 l 1018 757 l 1018 257 l 1060 257 l 1060 138 l 1018 138 l 1018 0 l 869 0 l 869 138 l 639 138 l 639 308 l 807 729 m 869 257 l 869 547 l 783 301 l 783 257 m 251 253 b 353 354 319 253 353 286 l 353 558 b 290 633 353 599 342 633 b 349 700 339 638 349 665 l 349 911 b 247 1010 349 979 315 1010 l 54 1010 l 28 869 l 188 869 b 204 850 199 869 204 867 l 204 706 b 183 685 204 689 200 685 l 67 685 l 67 554 l 186 554 b 204 536 203 554 204 547 l 204 413 b 183 393 204 394 197 393 l 29 393 l 54 253 "},"¿":{"ha":506,"x_min":0,"x_max":0,"o":"m 42 -104 b 174 -236 42 -194 83 -236 l 457 -236 l 492 -49 l 257 -49 b 239 -31 247 -49 239 -43 l 239 164 b 258 183 239 178 240 183 l 367 183 b 425 242 400 183 425 210 l 425 507 l 258 507 l 258 350 l 151 350 b 42 250 76 350 42 308 m 447 678 b 339 569 447 618 399 569 b 231 678 279 569 231 618 b 339 785 231 738 279 785 b 447 678 399 785 447 738 "},"Þ":{"ha":599,"x_min":0,"x_max":0,"o":"m 242 708 l 242 292 l 342 292 b 361 313 358 292 361 297 l 361 689 b 343 708 361 701 357 708 m 557 256 b 421 125 557 176 515 125 l 242 125 l 242 0 l 42 0 l 42 1010 l 242 1010 l 242 885 l 421 885 b 557 756 515 885 557 835 "},"ß":{"ha":1108,"x_min":0,"x_max":0,"o":"m 746 336 b 315 336 603 300 460 300 b 531 190 351 275 424 190 b 746 336 633 190 708 275 m 833 472 l 228 472 l 301 356 b 758 356 454 319 606 321 m 449 629 b 385 779 425 679 415 736 b 307 735 374 793 301 742 l 407 610 b 449 629 413 603 451 624 m 582 515 l 531 639 l 481 515 m 753 735 b 676 779 758 742 686 793 b 613 629 643 736 633 679 b 654 610 607 624 649 603 m 913 515 b 531 133 913 306 740 133 b 147 515 321 133 147 306 b 531 897 147 726 321 897 b 913 515 740 897 913 726 m 940 515 b 531 926 940 742 757 926 b 118 515 304 926 118 742 b 531 104 118 290 304 104 b 940 515 757 104 940 290 m 982 144 l 946 144 l 946 49 l 919 49 l 919 144 l 885 144 l 885 167 l 982 167 m 1006 515 b 531 39 1006 254 792 39 b 56 515 269 39 56 254 b 531 992 56 778 269 992 b 1006 515 792 992 1006 778 m 1106 49 l 1085 49 l 1085 144 l 1061 49 l 1039 49 l 1015 144 l 1015 49 l 993 49 l 993 167 l 1028 167 l 1051 75 l 1071 167 l 1106 167 "},"à":{"ha":1108,"x_min":0,"x_max":0,"o":"m 746 336 b 315 336 603 300 460 300 b 531 190 351 275 424 190 b 746 336 633 190 708 275 m 833 472 l 228 472 l 301 356 b 758 356 454 319 606 321 m 449 629 b 385 779 425 679 415 736 b 307 735 374 793 301 742 l 407 610 b 449 629 413 603 451 624 m 582 515 l 531 639 l 481 515 m 753 735 b 676 779 758 742 686 793 b 613 629 643 736 633 679 b 654 610 607 624 649 603 m 913 515 b 531 133 913 306 740 133 b 147 515 321 133 147 306 b 531 897 147 726 321 897 b 913 515 740 897 913 726 m 940 515 b 531 926 940 742 757 926 b 118 515 304 926 118 742 b 531 104 118 290 304 104 b 940 515 757 104 940 290 m 982 144 l 946 144 l 946 49 l 919 49 l 919 144 l 885 144 l 885 167 l 982 167 m 1006 515 b 531 39 1006 254 792 39 b 56 515 269 39 56 254 b 531 992 56 778 269 992 b 1006 515 792 992 1006 778 m 1106 49 l 1085 49 l 1085 144 l 1061 49 l 1039 49 l 1015 144 l 1015 49 l 993 49 l 993 167 l 1028 167 l 1051 75 l 1071 167 l 1106 167 "},"á":{"ha":1108,"x_min":0,"x_max":0,"o":"m 746 336 b 315 336 603 300 460 300 b 531 190 351 275 424 190 b 746 336 633 190 708 275 m 833 472 l 228 472 l 301 356 b 758 356 454 319 606 321 m 449 629 b 385 779 425 679 415 736 b 307 735 374 793 301 742 l 407 610 b 449 629 413 603 451 624 m 582 515 l 531 639 l 481 515 m 753 735 b 676 779 758 742 686 793 b 613 629 643 736 633 679 b 654 610 607 624 649 603 m 913 515 b 531 133 913 306 740 133 b 147 515 321 133 147 306 b 531 897 147 726 321 897 b 913 515 740 897 913 726 m 940 515 b 531 926 940 742 757 926 b 118 515 304 926 118 742 b 531 104 118 290 304 104 b 940 515 757 104 940 290 m 982 144 l 946 144 l 946 49 l 919 49 l 919 144 l 885 144 l 885 167 l 982 167 m 1006 515 b 531 39 1006 254 792 39 b 56 515 269 39 56 254 b 531 992 56 778 269 992 b 1006 515 792 992 1006 778 m 1106 49 l 1085 49 l 1085 144 l 1061 49 l 1039 49 l 1015 144 l 1015 49 l 993 49 l 993 167 l 1028 167 l 1051 75 l 1071 167 l 1106 167 "},"â":{"ha":1108,"x_min":0,"x_max":0,"o":"m 746 336 b 315 336 603 300 460 300 b 531 190 351 275 424 190 b 746 336 633 190 708 275 m 833 472 l 228 472 l 301 356 b 758 356 454 319 606 321 m 449 629 b 385 779 425 679 415 736 b 307 735 374 793 301 742 l 407 610 b 449 629 413 603 451 624 m 582 515 l 531 639 l 481 515 m 753 735 b 676 779 758 742 686 793 b 613 629 643 736 633 679 b 654 610 607 624 649 603 m 913 515 b 531 133 913 306 740 133 b 147 515 321 133 147 306 b 531 897 147 726 321 897 b 913 515 740 897 913 726 m 940 515 b 531 926 940 742 757 926 b 118 515 304 926 118 742 b 531 104 118 290 304 104 b 940 515 757 104 940 290 m 982 144 l 946 144 l 946 49 l 919 49 l 919 144 l 885 144 l 885 167 l 982 167 m 1006 515 b 531 39 1006 254 792 39 b 56 515 269 39 56 254 b 531 992 56 778 269 992 b 1006 515 792 992 1006 778 m 1106 49 l 1085 49 l 1085 144 l 1061 49 l 1039 49 l 1015 144 l 1015 49 l 993 49 l 993 167 l 1028 167 l 1051 75 l 1071 167 l 1106 167 "},"ã":{"ha":1108,"x_min":0,"x_max":0,"o":"m 746 336 b 315 336 603 300 460 300 b 531 190 351 275 424 190 b 746 336 633 190 708 275 m 833 472 l 228 472 l 301 356 b 758 356 454 319 606 321 m 449 629 b 385 779 425 679 415 736 b 307 735 374 793 301 742 l 407 610 b 449 629 413 603 451 624 m 582 515 l 531 639 l 481 515 m 753 735 b 676 779 758 742 686 793 b 613 629 643 736 633 679 b 654 610 607 624 649 603 m 913 515 b 531 133 913 306 740 133 b 147 515 321 133 147 306 b 531 897 147 726 321 897 b 913 515 740 897 913 726 m 940 515 b 531 926 940 742 757 926 b 118 515 304 926 118 742 b 531 104 118 290 304 104 b 940 515 757 104 940 290 m 982 144 l 946 144 l 946 49 l 919 49 l 919 144 l 885 144 l 885 167 l 982 167 m 1006 515 b 531 39 1006 254 792 39 b 56 515 269 39 56 254 b 531 992 56 778 269 992 b 1006 515 792 992 1006 778 m 1106 49 l 1085 49 l 1085 144 l 1061 49 l 1039 49 l 1015 144 l 1015 49 l 993 49 l 993 167 l 1028 167 l 1051 75 l 1071 167 l 1106 167 "},"ä":{"ha":1108,"x_min":0,"x_max":0,"o":"m 746 336 b 315 336 603 300 460 300 b 531 190 351 275 424 190 b 746 336 633 190 708 275 m 833 472 l 228 472 l 301 356 b 758 356 454 319 606 321 m 449 629 b 385 779 425 679 415 736 b 307 735 374 793 301 742 l 407 610 b 449 629 413 603 451 624 m 582 515 l 531 639 l 481 515 m 753 735 b 676 779 758 742 686 793 b 613 629 643 736 633 679 b 654 610 607 624 649 603 m 913 515 b 531 133 913 306 740 133 b 147 515 321 133 147 306 b 531 897 147 726 321 897 b 913 515 740 897 913 726 m 940 515 b 531 926 940 742 757 926 b 118 515 304 926 118 742 b 531 104 118 290 304 104 b 940 515 757 104 940 290 m 982 144 l 946 144 l 946 49 l 919 49 l 919 144 l 885 144 l 885 167 l 982 167 m 1006 515 b 531 39 1006 254 792 39 b 56 515 269 39 56 254 b 531 992 56 778 269 992 b 1006 515 792 992 1006 778 m 1106 49 l 1085 49 l 1085 144 l 1061 49 l 1039 49 l 1015 144 l 1015 49 l 993 49 l 993 167 l 1028 167 l 1051 75 l 1071 167 l 1106 167 "},"å":{"ha":1108,"x_min":0,"x_max":0,"o":"m 746 336 b 315 336 603 300 460 300 b 531 190 351 275 424 190 b 746 336 633 190 708 275 m 833 472 l 228 472 l 301 356 b 758 356 454 319 606 321 m 449 629 b 385 779 425 679 415 736 b 307 735 374 793 301 742 l 407 610 b 449 629 413 603 451 624 m 582 515 l 531 639 l 481 515 m 753 735 b 676 779 758 742 686 793 b 613 629 643 736 633 679 b 654 610 607 624 649 603 m 913 515 b 531 133 913 306 740 133 b 147 515 321 133 147 306 b 531 897 147 726 321 897 b 913 515 740 897 913 726 m 940 515 b 531 926 940 742 757 926 b 118 515 304 926 118 742 b 531 104 118 290 304 104 b 940 515 757 104 940 290 m 982 144 l 946 144 l 946 49 l 919 49 l 919 144 l 885 144 l 885 167 l 982 167 m 1006 515 b 531 39 1006 254 792 39 b 56 515 269 39 56 254 b 531 992 56 778 269 992 b 1006 515 792 992 1006 778 m 1106 49 l 1085 49 l 1085 144 l 1061 49 l 1039 49 l 1015 144 l 1015 49 l 993 49 l 993 167 l 1028 167 l 1051 75 l 1071 167 l 1106 167 "},"æ":{"ha":1108,"x_min":0,"x_max":0,"o":"m 746 336 b 315 336 603 300 460 300 b 531 190 351 275 424 190 b 746 336 633 190 708 275 m 833 472 l 228 472 l 301 356 b 758 356 454 319 606 321 m 449 629 b 385 779 425 679 415 736 b 307 735 374 793 301 742 l 407 610 b 449 629 413 603 451 624 m 582 515 l 531 639 l 481 515 m 753 735 b 676 779 758 742 686 793 b 613 629 643 736 633 679 b 654 610 607 624 649 603 m 913 515 b 531 133 913 306 740 133 b 147 515 321 133 147 306 b 531 897 147 726 321 897 b 913 515 740 897 913 726 m 940 515 b 531 926 940 742 757 926 b 118 515 304 926 118 742 b 531 104 118 290 304 104 b 940 515 757 104 940 290 m 982 144 l 946 144 l 946 49 l 919 49 l 919 144 l 885 144 l 885 167 l 982 167 m 1006 515 b 531 39 1006 254 792 39 b 56 515 269 39 56 254 b 531 992 56 778 269 992 b 1006 515 792 992 1006 778 m 1106 49 l 1085 49 l 1085 144 l 1061 49 l 1039 49 l 1015 144 l 1015 49 l 993 49 l 993 167 l 1028 167 l 1051 75 l 1071 167 l 1106 167 "},"ç":{"ha":1108,"x_min":0,"x_max":0,"o":"m 746 336 b 315 336 603 300 460 300 b 531 190 351 275 424 190 b 746 336 633 190 708 275 m 833 472 l 228 472 l 301 356 b 758 356 454 319 606 321 m 449 629 b 385 779 425 679 415 736 b 307 735 374 793 301 742 l 407 610 b 449 629 413 603 451 624 m 582 515 l 531 639 l 481 515 m 753 735 b 676 779 758 742 686 793 b 613 629 643 736 633 679 b 654 610 607 624 649 603 m 913 515 b 531 133 913 306 740 133 b 147 515 321 133 147 306 b 531 897 147 726 321 897 b 913 515 740 897 913 726 m 940 515 b 531 926 940 742 757 926 b 118 515 304 926 118 742 b 531 104 118 290 304 104 b 940 515 757 104 940 290 m 982 144 l 946 144 l 946 49 l 919 49 l 919 144 l 885 144 l 885 167 l 982 167 m 1006 515 b 531 39 1006 254 792 39 b 56 515 269 39 56 254 b 531 992 56 778 269 992 b 1006 515 792 992 1006 778 m 1106 49 l 1085 49 l 1085 144 l 1061 49 l 1039 49 l 1015 144 l 1015 49 l 993 49 l 993 167 l 1028 167 l 1051 75 l 1071 167 l 1106 167 "},"è":{"ha":1108,"x_min":0,"x_max":0,"o":"m 746 336 b 315 336 603 300 460 300 b 531 190 351 275 424 190 b 746 336 633 190 708 275 m 833 472 l 228 472 l 301 356 b 758 356 454 319 606 321 m 449 629 b 385 779 425 679 415 736 b 307 735 374 793 301 742 l 407 610 b 449 629 413 603 451 624 m 582 515 l 531 639 l 481 515 m 753 735 b 676 779 758 742 686 793 b 613 629 643 736 633 679 b 654 610 607 624 649 603 m 913 515 b 531 133 913 306 740 133 b 147 515 321 133 147 306 b 531 897 147 726 321 897 b 913 515 740 897 913 726 m 940 515 b 531 926 940 742 757 926 b 118 515 304 926 118 742 b 531 104 118 290 304 104 b 940 515 757 104 940 290 m 982 144 l 946 144 l 946 49 l 919 49 l 919 144 l 885 144 l 885 167 l 982 167 m 1006 515 b 531 39 1006 254 792 39 b 56 515 269 39 56 254 b 531 992 56 778 269 992 b 1006 515 792 992 1006 778 m 1106 49 l 1085 49 l 1085 144 l 1061 49 l 1039 49 l 1015 144 l 1015 49 l 993 49 l 993 167 l 1028 167 l 1051 75 l 1071 167 l 1106 167 "},"é":{"ha":1108,"x_min":0,"x_max":0,"o":"m 746 336 b 315 336 603 300 460 300 b 531 190 351 275 424 190 b 746 336 633 190 708 275 m 833 472 l 228 472 l 301 356 b 758 356 454 319 606 321 m 449 629 b 385 779 425 679 415 736 b 307 735 374 793 301 742 l 407 610 b 449 629 413 603 451 624 m 582 515 l 531 639 l 481 515 m 753 735 b 676 779 758 742 686 793 b 613 629 643 736 633 679 b 654 610 607 624 649 603 m 913 515 b 531 133 913 306 740 133 b 147 515 321 133 147 306 b 531 897 147 726 321 897 b 913 515 740 897 913 726 m 940 515 b 531 926 940 742 757 926 b 118 515 304 926 118 742 b 531 104 118 290 304 104 b 940 515 757 104 940 290 m 982 144 l 946 144 l 946 49 l 919 49 l 919 144 l 885 144 l 885 167 l 982 167 m 1006 515 b 531 39 1006 254 792 39 b 56 515 269 39 56 254 b 531 992 56 778 269 992 b 1006 515 792 992 1006 778 m 1106 49 l 1085 49 l 1085 144 l 1061 49 l 1039 49 l 1015 144 l 1015 49 l 993 49 l 993 167 l 1028 167 l 1051 75 l 1071 167 l 1106 167 "},"ê":{"ha":1108,"x_min":0,"x_max":0,"o":"m 746 336 b 315 336 603 300 460 300 b 531 190 351 275 424 190 b 746 336 633 190 708 275 m 833 472 l 228 472 l 301 356 b 758 356 454 319 606 321 m 449 629 b 385 779 425 679 415 736 b 307 735 374 793 301 742 l 407 610 b 449 629 413 603 451 624 m 582 515 l 531 639 l 481 515 m 753 735 b 676 779 758 742 686 793 b 613 629 643 736 633 679 b 654 610 607 624 649 603 m 913 515 b 531 133 913 306 740 133 b 147 515 321 133 147 306 b 531 897 147 726 321 897 b 913 515 740 897 913 726 m 940 515 b 531 926 940 742 757 926 b 118 515 304 926 118 742 b 531 104 118 290 304 104 b 940 515 757 104 940 290 m 982 144 l 946 144 l 946 49 l 919 49 l 919 144 l 885 144 l 885 167 l 982 167 m 1006 515 b 531 39 1006 254 792 39 b 56 515 269 39 56 254 b 531 992 56 778 269 992 b 1006 515 792 992 1006 778 m 1106 49 l 1085 49 l 1085 144 l 1061 49 l 1039 49 l 1015 144 l 1015 49 l 993 49 l 993 167 l 1028 167 l 1051 75 l 1071 167 l 1106 167 "},"ë":{"ha":1108,"x_min":0,"x_max":0,"o":"m 746 336 b 315 336 603 300 460 300 b 531 190 351 275 424 190 b 746 336 633 190 708 275 m 833 472 l 228 472 l 301 356 b 758 356 454 319 606 321 m 449 629 b 385 779 425 679 415 736 b 307 735 374 793 301 742 l 407 610 b 449 629 413 603 451 624 m 582 515 l 531 639 l 481 515 m 753 735 b 676 779 758 742 686 793 b 613 629 643 736 633 679 b 654 610 607 624 649 603 m 913 515 b 531 133 913 306 740 133 b 147 515 321 133 147 306 b 531 897 147 726 321 897 b 913 515 740 897 913 726 m 940 515 b 531 926 940 742 757 926 b 118 515 304 926 118 742 b 531 104 118 290 304 104 b 940 515 757 104 940 290 m 982 144 l 946 144 l 946 49 l 919 49 l 919 144 l 885 144 l 885 167 l 982 167 m 1006 515 b 531 39 1006 254 792 39 b 56 515 269 39 56 254 b 531 992 56 778 269 992 b 1006 515 792 992 1006 778 m 1106 49 l 1085 49 l 1085 144 l 1061 49 l 1039 49 l 1015 144 l 1015 49 l 993 49 l 993 167 l 1028 167 l 1051 75 l 1071 167 l 1106 167 "},"ì":{"ha":1108,"x_min":0,"x_max":0,"o":"m 746 336 b 315 336 603 300 460 300 b 531 190 351 275 424 190 b 746 336 633 190 708 275 m 833 472 l 228 472 l 301 356 b 758 356 454 319 606 321 m 449 629 b 385 779 425 679 415 736 b 307 735 374 793 301 742 l 407 610 b 449 629 413 603 451 624 m 582 515 l 531 639 l 481 515 m 753 735 b 676 779 758 742 686 793 b 613 629 643 736 633 679 b 654 610 607 624 649 603 m 913 515 b 531 133 913 306 740 133 b 147 515 321 133 147 306 b 531 897 147 726 321 897 b 913 515 740 897 913 726 m 940 515 b 531 926 940 742 757 926 b 118 515 304 926 118 742 b 531 104 118 290 304 104 b 940 515 757 104 940 290 m 982 144 l 946 144 l 946 49 l 919 49 l 919 144 l 885 144 l 885 167 l 982 167 m 1006 515 b 531 39 1006 254 792 39 b 56 515 269 39 56 254 b 531 992 56 778 269 992 b 1006 515 792 992 1006 778 m 1106 49 l 1085 49 l 1085 144 l 1061 49 l 1039 49 l 1015 144 l 1015 49 l 993 49 l 993 167 l 1028 167 l 1051 75 l 1071 167 l 1106 167 "},"í":{"ha":1108,"x_min":0,"x_max":0,"o":"m 746 336 b 315 336 603 300 460 300 b 531 190 351 275 424 190 b 746 336 633 190 708 275 m 833 472 l 228 472 l 301 356 b 758 356 454 319 606 321 m 449 629 b 385 779 425 679 415 736 b 307 735 374 793 301 742 l 407 610 b 449 629 413 603 451 624 m 582 515 l 531 639 l 481 515 m 753 735 b 676 779 758 742 686 793 b 613 629 643 736 633 679 b 654 610 607 624 649 603 m 913 515 b 531 133 913 306 740 133 b 147 515 321 133 147 306 b 531 897 147 726 321 897 b 913 515 740 897 913 726 m 940 515 b 531 926 940 742 757 926 b 118 515 304 926 118 742 b 531 104 118 290 304 104 b 940 515 757 104 940 290 m 982 144 l 946 144 l 946 49 l 919 49 l 919 144 l 885 144 l 885 167 l 982 167 m 1006 515 b 531 39 1006 254 792 39 b 56 515 269 39 56 254 b 531 992 56 778 269 992 b 1006 515 792 992 1006 778 m 1106 49 l 1085 49 l 1085 144 l 1061 49 l 1039 49 l 1015 144 l 1015 49 l 993 49 l 993 167 l 1028 167 l 1051 75 l 1071 167 l 1106 167 "},"î":{"ha":1108,"x_min":0,"x_max":0,"o":"m 746 336 b 315 336 603 300 460 300 b 531 190 351 275 424 190 b 746 336 633 190 708 275 m 833 472 l 228 472 l 301 356 b 758 356 454 319 606 321 m 449 629 b 385 779 425 679 415 736 b 307 735 374 793 301 742 l 407 610 b 449 629 413 603 451 624 m 582 515 l 531 639 l 481 515 m 753 735 b 676 779 758 742 686 793 b 613 629 643 736 633 679 b 654 610 607 624 649 603 m 913 515 b 531 133 913 306 740 133 b 147 515 321 133 147 306 b 531 897 147 726 321 897 b 913 515 740 897 913 726 m 940 515 b 531 926 940 742 757 926 b 118 515 304 926 118 742 b 531 104 118 290 304 104 b 940 515 757 104 940 290 m 982 144 l 946 144 l 946 49 l 919 49 l 919 144 l 885 144 l 885 167 l 982 167 m 1006 515 b 531 39 1006 254 792 39 b 56 515 269 39 56 254 b 531 992 56 778 269 992 b 1006 515 792 992 1006 778 m 1106 49 l 1085 49 l 1085 144 l 1061 49 l 1039 49 l 1015 144 l 1015 49 l 993 49 l 993 167 l 1028 167 l 1051 75 l 1071 167 l 1106 167 "},"ï":{"ha":1108,"x_min":0,"x_max":0,"o":"m 746 336 b 315 336 603 300 460 300 b 531 190 351 275 424 190 b 746 336 633 190 708 275 m 833 472 l 228 472 l 301 356 b 758 356 454 319 606 321 m 449 629 b 385 779 425 679 415 736 b 307 735 374 793 301 742 l 407 610 b 449 629 413 603 451 624 m 582 515 l 531 639 l 481 515 m 753 735 b 676 779 758 742 686 793 b 613 629 643 736 633 679 b 654 610 607 624 649 603 m 913 515 b 531 133 913 306 740 133 b 147 515 321 133 147 306 b 531 897 147 726 321 897 b 913 515 740 897 913 726 m 940 515 b 531 926 940 742 757 926 b 118 515 304 926 118 742 b 531 104 118 290 304 104 b 940 515 757 104 940 290 m 982 144 l 946 144 l 946 49 l 919 49 l 919 144 l 885 144 l 885 167 l 982 167 m 1006 515 b 531 39 1006 254 792 39 b 56 515 269 39 56 254 b 531 992 56 778 269 992 b 1006 515 792 992 1006 778 m 1106 49 l 1085 49 l 1085 144 l 1061 49 l 1039 49 l 1015 144 l 1015 49 l 993 49 l 993 167 l 1028 167 l 1051 75 l 1071 167 l 1106 167 "},"ð":{"ha":1108,"x_min":0,"x_max":0,"o":"m 746 336 b 315 336 603 300 460 300 b 531 190 351 275 424 190 b 746 336 633 190 708 275 m 833 472 l 228 472 l 301 356 b 758 356 454 319 606 321 m 449 629 b 385 779 425 679 415 736 b 307 735 374 793 301 742 l 407 610 b 449 629 413 603 451 624 m 582 515 l 531 639 l 481 515 m 753 735 b 676 779 758 742 686 793 b 613 629 643 736 633 679 b 654 610 607 624 649 603 m 913 515 b 531 133 913 306 740 133 b 147 515 321 133 147 306 b 531 897 147 726 321 897 b 913 515 740 897 913 726 m 940 515 b 531 926 940 742 757 926 b 118 515 304 926 118 742 b 531 104 118 290 304 104 b 940 515 757 104 940 290 m 982 144 l 946 144 l 946 49 l 919 49 l 919 144 l 885 144 l 885 167 l 982 167 m 1006 515 b 531 39 1006 254 792 39 b 56 515 269 39 56 254 b 531 992 56 778 269 992 b 1006 515 792 992 1006 778 m 1106 49 l 1085 49 l 1085 144 l 1061 49 l 1039 49 l 1015 144 l 1015 49 l 993 49 l 993 167 l 1028 167 l 1051 75 l 1071 167 l 1106 167 "},"ñ":{"ha":1108,"x_min":0,"x_max":0,"o":"m 746 336 b 315 336 603 300 460 300 b 531 190 351 275 424 190 b 746 336 633 190 708 275 m 833 472 l 228 472 l 301 356 b 758 356 454 319 606 321 m 449 629 b 385 779 425 679 415 736 b 307 735 374 793 301 742 l 407 610 b 449 629 413 603 451 624 m 582 515 l 531 639 l 481 515 m 753 735 b 676 779 758 742 686 793 b 613 629 643 736 633 679 b 654 610 607 624 649 603 m 913 515 b 531 133 913 306 740 133 b 147 515 321 133 147 306 b 531 897 147 726 321 897 b 913 515 740 897 913 726 m 940 515 b 531 926 940 742 757 926 b 118 515 304 926 118 742 b 531 104 118 290 304 104 b 940 515 757 104 940 290 m 982 144 l 946 144 l 946 49 l 919 49 l 919 144 l 885 144 l 885 167 l 982 167 m 1006 515 b 531 39 1006 254 792 39 b 56 515 269 39 56 254 b 531 992 56 778 269 992 b 1006 515 792 992 1006 778 m 1106 49 l 1085 49 l 1085 144 l 1061 49 l 1039 49 l 1015 144 l 1015 49 l 993 49 l 993 167 l 1028 167 l 1051 75 l 1071 167 l 1106 167 "},"ò":{"ha":1108,"x_min":0,"x_max":0,"o":"m 746 336 b 315 336 603 300 460 300 b 531 190 351 275 424 190 b 746 336 633 190 708 275 m 833 472 l 228 472 l 301 356 b 758 356 454 319 606 321 m 449 629 b 385 779 425 679 415 736 b 307 735 374 793 301 742 l 407 610 b 449 629 413 603 451 624 m 582 515 l 531 639 l 481 515 m 753 735 b 676 779 758 742 686 793 b 613 629 643 736 633 679 b 654 610 607 624 649 603 m 913 515 b 531 133 913 306 740 133 b 147 515 321 133 147 306 b 531 897 147 726 321 897 b 913 515 740 897 913 726 m 940 515 b 531 926 940 742 757 926 b 118 515 304 926 118 742 b 531 104 118 290 304 104 b 940 515 757 104 940 290 m 982 144 l 946 144 l 946 49 l 919 49 l 919 144 l 885 144 l 885 167 l 982 167 m 1006 515 b 531 39 1006 254 792 39 b 56 515 269 39 56 254 b 531 992 56 778 269 992 b 1006 515 792 992 1006 778 m 1106 49 l 1085 49 l 1085 144 l 1061 49 l 1039 49 l 1015 144 l 1015 49 l 993 49 l 993 167 l 1028 167 l 1051 75 l 1071 167 l 1106 167 "},"ó":{"ha":1108,"x_min":0,"x_max":0,"o":"m 746 336 b 315 336 603 300 460 300 b 531 190 351 275 424 190 b 746 336 633 190 708 275 m 833 472 l 228 472 l 301 356 b 758 356 454 319 606 321 m 449 629 b 385 779 425 679 415 736 b 307 735 374 793 301 742 l 407 610 b 449 629 413 603 451 624 m 582 515 l 531 639 l 481 515 m 753 735 b 676 779 758 742 686 793 b 613 629 643 736 633 679 b 654 610 607 624 649 603 m 913 515 b 531 133 913 306 740 133 b 147 515 321 133 147 306 b 531 897 147 726 321 897 b 913 515 740 897 913 726 m 940 515 b 531 926 940 742 757 926 b 118 515 304 926 118 742 b 531 104 118 290 304 104 b 940 515 757 104 940 290 m 982 144 l 946 144 l 946 49 l 919 49 l 919 144 l 885 144 l 885 167 l 982 167 m 1006 515 b 531 39 1006 254 792 39 b 56 515 269 39 56 254 b 531 992 56 778 269 992 b 1006 515 792 992 1006 778 m 1106 49 l 1085 49 l 1085 144 l 1061 49 l 1039 49 l 1015 144 l 1015 49 l 993 49 l 993 167 l 1028 167 l 1051 75 l 1071 167 l 1106 167 "},"ô":{"ha":1108,"x_min":0,"x_max":0,"o":"m 746 336 b 315 336 603 300 460 300 b 531 190 351 275 424 190 b 746 336 633 190 708 275 m 833 472 l 228 472 l 301 356 b 758 356 454 319 606 321 m 449 629 b 385 779 425 679 415 736 b 307 735 374 793 301 742 l 407 610 b 449 629 413 603 451 624 m 582 515 l 531 639 l 481 515 m 753 735 b 676 779 758 742 686 793 b 613 629 643 736 633 679 b 654 610 607 624 649 603 m 913 515 b 531 133 913 306 740 133 b 147 515 321 133 147 306 b 531 897 147 726 321 897 b 913 515 740 897 913 726 m 940 515 b 531 926 940 742 757 926 b 118 515 304 926 118 742 b 531 104 118 290 304 104 b 940 515 757 104 940 290 m 982 144 l 946 144 l 946 49 l 919 49 l 919 144 l 885 144 l 885 167 l 982 167 m 1006 515 b 531 39 1006 254 792 39 b 56 515 269 39 56 254 b 531 992 56 778 269 992 b 1006 515 792 992 1006 778 m 1106 49 l 1085 49 l 1085 144 l 1061 49 l 1039 49 l 1015 144 l 1015 49 l 993 49 l 993 167 l 1028 167 l 1051 75 l 1071 167 l 1106 167 "},"õ":{"ha":1108,"x_min":0,"x_max":0,"o":"m 746 336 b 315 336 603 300 460 300 b 531 190 351 275 424 190 b 746 336 633 190 708 275 m 833 472 l 228 472 l 301 356 b 758 356 454 319 606 321 m 449 629 b 385 779 425 679 415 736 b 307 735 374 793 301 742 l 407 610 b 449 629 413 603 451 624 m 582 515 l 531 639 l 481 515 m 753 735 b 676 779 758 742 686 793 b 613 629 643 736 633 679 b 654 610 607 624 649 603 m 913 515 b 531 133 913 306 740 133 b 147 515 321 133 147 306 b 531 897 147 726 321 897 b 913 515 740 897 913 726 m 940 515 b 531 926 940 742 757 926 b 118 515 304 926 118 742 b 531 104 118 290 304 104 b 940 515 757 104 940 290 m 982 144 l 946 144 l 946 49 l 919 49 l 919 144 l 885 144 l 885 167 l 982 167 m 1006 515 b 531 39 1006 254 792 39 b 56 515 269 39 56 254 b 531 992 56 778 269 992 b 1006 515 792 992 1006 778 m 1106 49 l 1085 49 l 1085 144 l 1061 49 l 1039 49 l 1015 144 l 1015 49 l 993 49 l 993 167 l 1028 167 l 1051 75 l 1071 167 l 1106 167 "},"ö":{"ha":1108,"x_min":0,"x_max":0,"o":"m 746 336 b 315 336 603 300 460 300 b 531 190 351 275 424 190 b 746 336 633 190 708 275 m 833 472 l 228 472 l 301 356 b 758 356 454 319 606 321 m 449 629 b 385 779 425 679 415 736 b 307 735 374 793 301 742 l 407 610 b 449 629 413 603 451 624 m 582 515 l 531 639 l 481 515 m 753 735 b 676 779 758 742 686 793 b 613 629 643 736 633 679 b 654 610 607 624 649 603 m 913 515 b 531 133 913 306 740 133 b 147 515 321 133 147 306 b 531 897 147 726 321 897 b 913 515 740 897 913 726 m 940 515 b 531 926 940 742 757 926 b 118 515 304 926 118 742 b 531 104 118 290 304 104 b 940 515 757 104 940 290 m 982 144 l 946 144 l 946 49 l 919 49 l 919 144 l 885 144 l 885 167 l 982 167 m 1006 515 b 531 39 1006 254 792 39 b 56 515 269 39 56 254 b 531 992 56 778 269 992 b 1006 515 792 992 1006 778 m 1106 49 l 1085 49 l 1085 144 l 1061 49 l 1039 49 l 1015 144 l 1015 49 l 993 49 l 993 167 l 1028 167 l 1051 75 l 1071 167 l 1106 167 "},"÷":{"ha":1108,"x_min":0,"x_max":0,"o":"m 746 336 b 315 336 603 300 460 300 b 531 190 351 275 424 190 b 746 336 633 190 708 275 m 833 472 l 228 472 l 301 356 b 758 356 454 319 606 321 m 449 629 b 385 779 425 679 415 736 b 307 735 374 793 301 742 l 407 610 b 449 629 413 603 451 624 m 582 515 l 531 639 l 481 515 m 753 735 b 676 779 758 742 686 793 b 613 629 643 736 633 679 b 654 610 607 624 649 603 m 913 515 b 531 133 913 306 740 133 b 147 515 321 133 147 306 b 531 897 147 726 321 897 b 913 515 740 897 913 726 m 940 515 b 531 926 940 742 757 926 b 118 515 304 926 118 742 b 531 104 118 290 304 104 b 940 515 757 104 940 290 m 982 144 l 946 144 l 946 49 l 919 49 l 919 144 l 885 144 l 885 167 l 982 167 m 1006 515 b 531 39 1006 254 792 39 b 56 515 269 39 56 254 b 531 992 56 778 269 992 b 1006 515 792 992 1006 778 m 1106 49 l 1085 49 l 1085 144 l 1061 49 l 1039 49 l 1015 144 l 1015 49 l 993 49 l 993 167 l 1028 167 l 1051 75 l 1071 167 l 1106 167 "},"ø":{"ha":1108,"x_min":0,"x_max":0,"o":"m 746 336 b 315 336 603 300 460 300 b 531 190 351 275 424 190 b 746 336 633 190 708 275 m 833 472 l 228 472 l 301 356 b 758 356 454 319 606 321 m 449 629 b 385 779 425 679 415 736 b 307 735 374 793 301 742 l 407 610 b 449 629 413 603 451 624 m 582 515 l 531 639 l 481 515 m 753 735 b 676 779 758 742 686 793 b 613 629 643 736 633 679 b 654 610 607 624 649 603 m 913 515 b 531 133 913 306 740 133 b 147 515 321 133 147 306 b 531 897 147 726 321 897 b 913 515 740 897 913 726 m 940 515 b 531 926 940 742 757 926 b 118 515 304 926 118 742 b 531 104 118 290 304 104 b 940 515 757 104 940 290 m 982 144 l 946 144 l 946 49 l 919 49 l 919 144 l 885 144 l 885 167 l 982 167 m 1006 515 b 531 39 1006 254 792 39 b 56 515 269 39 56 254 b 531 992 56 778 269 992 b 1006 515 792 992 1006 778 m 1106 49 l 1085 49 l 1085 144 l 1061 49 l 1039 49 l 1015 144 l 1015 49 l 993 49 l 993 167 l 1028 167 l 1051 75 l 1071 167 l 1106 167 "},"ù":{"ha":1108,"x_min":0,"x_max":0,"o":"m 746 336 b 315 336 603 300 460 300 b 531 190 351 275 424 190 b 746 336 633 190 708 275 m 833 472 l 228 472 l 301 356 b 758 356 454 319 606 321 m 449 629 b 385 779 425 679 415 736 b 307 735 374 793 301 742 l 407 610 b 449 629 413 603 451 624 m 582 515 l 531 639 l 481 515 m 753 735 b 676 779 758 742 686 793 b 613 629 643 736 633 679 b 654 610 607 624 649 603 m 913 515 b 531 133 913 306 740 133 b 147 515 321 133 147 306 b 531 897 147 726 321 897 b 913 515 740 897 913 726 m 940 515 b 531 926 940 742 757 926 b 118 515 304 926 118 742 b 531 104 118 290 304 104 b 940 515 757 104 940 290 m 982 144 l 946 144 l 946 49 l 919 49 l 919 144 l 885 144 l 885 167 l 982 167 m 1006 515 b 531 39 1006 254 792 39 b 56 515 269 39 56 254 b 531 992 56 778 269 992 b 1006 515 792 992 1006 778 m 1106 49 l 1085 49 l 1085 144 l 1061 49 l 1039 49 l 1015 144 l 1015 49 l 993 49 l 993 167 l 1028 167 l 1051 75 l 1071 167 l 1106 167 "},"ú":{"ha":1108,"x_min":0,"x_max":0,"o":"m 746 336 b 315 336 603 300 460 300 b 531 190 351 275 424 190 b 746 336 633 190 708 275 m 833 472 l 228 472 l 301 356 b 758 356 454 319 606 321 m 449 629 b 385 779 425 679 415 736 b 307 735 374 793 301 742 l 407 610 b 449 629 413 603 451 624 m 582 515 l 531 639 l 481 515 m 753 735 b 676 779 758 742 686 793 b 613 629 643 736 633 679 b 654 610 607 624 649 603 m 913 515 b 531 133 913 306 740 133 b 147 515 321 133 147 306 b 531 897 147 726 321 897 b 913 515 740 897 913 726 m 940 515 b 531 926 940 742 757 926 b 118 515 304 926 118 742 b 531 104 118 290 304 104 b 940 515 757 104 940 290 m 982 144 l 946 144 l 946 49 l 919 49 l 919 144 l 885 144 l 885 167 l 982 167 m 1006 515 b 531 39 1006 254 792 39 b 56 515 269 39 56 254 b 531 992 56 778 269 992 b 1006 515 792 992 1006 778 m 1106 49 l 1085 49 l 1085 144 l 1061 49 l 1039 49 l 1015 144 l 1015 49 l 993 49 l 993 167 l 1028 167 l 1051 75 l 1071 167 l 1106 167 "},"û":{"ha":1108,"x_min":0,"x_max":0,"o":"m 746 336 b 315 336 603 300 460 300 b 531 190 351 275 424 190 b 746 336 633 190 708 275 m 833 472 l 228 472 l 301 356 b 758 356 454 319 606 321 m 449 629 b 385 779 425 679 415 736 b 307 735 374 793 301 742 l 407 610 b 449 629 413 603 451 624 m 582 515 l 531 639 l 481 515 m 753 735 b 676 779 758 742 686 793 b 613 629 643 736 633 679 b 654 610 607 624 649 603 m 913 515 b 531 133 913 306 740 133 b 147 515 321 133 147 306 b 531 897 147 726 321 897 b 913 515 740 897 913 726 m 940 515 b 531 926 940 742 757 926 b 118 515 304 926 118 742 b 531 104 118 290 304 104 b 940 515 757 104 940 290 m 982 144 l 946 144 l 946 49 l 919 49 l 919 144 l 885 144 l 885 167 l 982 167 m 1006 515 b 531 39 1006 254 792 39 b 56 515 269 39 56 254 b 531 992 56 778 269 992 b 1006 515 792 992 1006 778 m 1106 49 l 1085 49 l 1085 144 l 1061 49 l 1039 49 l 1015 144 l 1015 49 l 993 49 l 993 167 l 1028 167 l 1051 75 l 1071 167 l 1106 167 "},"ü":{"ha":1108,"x_min":0,"x_max":0,"o":"m 746 336 b 315 336 603 300 460 300 b 531 190 351 275 424 190 b 746 336 633 190 708 275 m 833 472 l 228 472 l 301 356 b 758 356 454 319 606 321 m 449 629 b 385 779 425 679 415 736 b 307 735 374 793 301 742 l 407 610 b 449 629 413 603 451 624 m 582 515 l 531 639 l 481 515 m 753 735 b 676 779 758 742 686 793 b 613 629 643 736 633 679 b 654 610 607 624 649 603 m 913 515 b 531 133 913 306 740 133 b 147 515 321 133 147 306 b 531 897 147 726 321 897 b 913 515 740 897 913 726 m 940 515 b 531 926 940 742 757 926 b 118 515 304 926 118 742 b 531 104 118 290 304 104 b 940 515 757 104 940 290 m 982 144 l 946 144 l 946 49 l 919 49 l 919 144 l 885 144 l 885 167 l 982 167 m 1006 515 b 531 39 1006 254 792 39 b 56 515 269 39 56 254 b 531 992 56 778 269 992 b 1006 515 792 992 1006 778 m 1106 49 l 1085 49 l 1085 144 l 1061 49 l 1039 49 l 1015 144 l 1015 49 l 993 49 l 993 167 l 1028 167 l 1051 75 l 1071 167 l 1106 167 "},"ý":{"ha":1108,"x_min":0,"x_max":0,"o":"m 746 336 b 315 336 603 300 460 300 b 531 190 351 275 424 190 b 746 336 633 190 708 275 m 833 472 l 228 472 l 301 356 b 758 356 454 319 606 321 m 449 629 b 385 779 425 679 415 736 b 307 735 374 793 301 742 l 407 610 b 449 629 413 603 451 624 m 582 515 l 531 639 l 481 515 m 753 735 b 676 779 758 742 686 793 b 613 629 643 736 633 679 b 654 610 607 624 649 603 m 913 515 b 531 133 913 306 740 133 b 147 515 321 133 147 306 b 531 897 147 726 321 897 b 913 515 740 897 913 726 m 940 515 b 531 926 940 742 757 926 b 118 515 304 926 118 742 b 531 104 118 290 304 104 b 940 515 757 104 940 290 m 982 144 l 946 144 l 946 49 l 919 49 l 919 144 l 885 144 l 885 167 l 982 167 m 1006 515 b 531 39 1006 254 792 39 b 56 515 269 39 56 254 b 531 992 56 778 269 992 b 1006 515 792 992 1006 778 m 1106 49 l 1085 49 l 1085 144 l 1061 49 l 1039 49 l 1015 144 l 1015 49 l 993 49 l 993 167 l 1028 167 l 1051 75 l 1071 167 l 1106 167 "},"þ":{"ha":1108,"x_min":0,"x_max":0,"o":"m 746 336 b 315 336 603 300 460 300 b 531 190 351 275 424 190 b 746 336 633 190 708 275 m 833 472 l 228 472 l 301 356 b 758 356 454 319 606 321 m 449 629 b 385 779 425 679 415 736 b 307 735 374 793 301 742 l 407 610 b 449 629 413 603 451 624 m 582 515 l 531 639 l 481 515 m 753 735 b 676 779 758 742 686 793 b 613 629 643 736 633 679 b 654 610 607 624 649 603 m 913 515 b 531 133 913 306 740 133 b 147 515 321 133 147 306 b 531 897 147 726 321 897 b 913 515 740 897 913 726 m 940 515 b 531 926 940 742 757 926 b 118 515 304 926 118 742 b 531 104 118 290 304 104 b 940 515 757 104 940 290 m 982 144 l 946 144 l 946 49 l 919 49 l 919 144 l 885 144 l 885 167 l 982 167 m 1006 515 b 531 39 1006 254 792 39 b 56 515 269 39 56 254 b 531 992 56 778 269 992 b 1006 515 792 992 1006 778 m 1106 49 l 1085 49 l 1085 144 l 1061 49 l 1039 49 l 1015 144 l 1015 49 l 993 49 l 993 167 l 1028 167 l 1051 75 l 1071 167 l 1106 167 "},"ÿ":{"ha":1108,"x_min":0,"x_max":0,"o":"m 746 336 b 315 336 603 300 460 300 b 531 190 351 275 424 190 b 746 336 633 190 708 275 m 833 472 l 228 472 l 301 356 b 758 356 454 319 606 321 m 449 629 b 385 779 425 679 415 736 b 307 735 374 793 301 742 l 407 610 b 449 629 413 603 451 624 m 582 515 l 531 639 l 481 515 m 753 735 b 676 779 758 742 686 793 b 613 629 643 736 633 679 b 654 610 607 624 649 603 m 913 515 b 531 133 913 306 740 133 b 147 515 321 133 147 306 b 531 897 147 726 321 897 b 913 515 740 897 913 726 m 940 515 b 531 926 940 742 757 926 b 118 515 304 926 118 742 b 531 104 118 290 304 104 b 940 515 757 104 940 290 m 982 144 l 946 144 l 946 49 l 919 49 l 919 144 l 885 144 l 885 167 l 982 167 m 1006 515 b 531 39 1006 254 792 39 b 56 515 269 39 56 254 b 531 992 56 778 269 992 b 1006 515 792 992 1006 778 m 1106 49 l 1085 49 l 1085 144 l 1061 49 l 1039 49 l 1015 144 l 1015 49 l 993 49 l 993 167 l 1028 167 l 1051 75 l 1071 167 l 1106 167 "},"D":{"ha":597,"x_min":0,"x_max":0,"o":"m 242 831 l 242 176 l 336 176 b 356 197 353 176 356 182 l 356 811 b 338 831 356 824 351 831 m 556 156 b 399 0 556 44 514 0 l 42 0 l 42 1007 l 436 1007 b 556 885 515 1007 556 958 "},"!":{"ha":279,"x_min":0,"x_max":0,"o":"m 28 1006 l 251 1006 l 201 264 l 75 264 m 31 93 b 139 201 31 153 79 201 b 247 93 199 201 247 153 b 139 -14 247 33 199 -14 b 31 93 79 -14 31 33 "},"\"":{"ha":443,"x_min":0,"x_max":0,"o":"m 247 1006 l 406 1006 l 374 663 l 278 663 m 38 1006 l 197 1006 l 167 663 l 69 663 "},"#":{"ha":639,"x_min":0,"x_max":0,"o":"m 292 549 l 278 461 l 361 461 l 376 549 m 596 549 l 472 549 l 456 461 l 579 461 l 567 378 l 440 378 l 374 0 l 278 0 l 346 378 l 263 378 l 194 0 l 99 0 l 165 378 l 42 378 l 57 461 l 181 461 l 196 549 l 71 549 l 89 632 l 213 632 l 279 1010 l 375 1010 l 307 632 l 390 632 l 460 1010 l 553 1010 l 488 632 l 611 632 "},"$":{"ha":488,"x_min":0,"x_max":0,"o":"m 264 361 l 89 510 b 43 651 40 550 43 592 l 43 776 b 153 885 43 840 81 885 l 207 885 l 207 1006 l 297 1006 l 297 885 l 401 885 l 440 713 l 211 713 l 211 640 l 400 472 b 446 358 436 442 446 406 l 446 215 b 340 122 446 151 408 122 l 297 122 l 297 0 l 207 0 l 207 122 l 99 122 l 50 276 l 264 276 "},"%":{"ha":971,"x_min":0,"x_max":0,"o":"m 718 247 b 754 125 718 143 726 125 b 792 247 782 125 792 143 b 754 369 792 351 782 369 b 718 247 726 369 718 351 m 933 247 b 754 -14 933 31 864 -14 b 575 247 644 -14 575 31 b 754 508 575 464 644 508 b 933 247 864 508 933 464 m 183 763 b 221 640 183 658 193 640 b 257 763 249 640 257 658 b 221 885 257 867 249 885 b 183 763 193 885 183 867 m 400 763 b 221 501 400 546 331 501 b 42 763 111 501 42 546 b 221 1024 42 979 111 1024 b 400 763 331 1024 400 979 m 758 1017 l 364 -7 l 214 -7 l 613 1017 "},"&":{"ha":765,"x_min":0,"x_max":0,"o":"m 251 504 b 231 463 236 501 231 500 l 231 203 b 272 164 231 174 244 164 l 322 164 b 393 207 349 164 381 174 b 251 504 356 293 306 379 m 378 658 b 456 708 425 657 451 678 b 457 818 460 739 460 783 b 394 867 454 858 436 867 l 364 867 b 321 775 303 867 296 825 m 736 0 l 564 0 b 481 64 533 0 499 15 b 249 -8 419 -8 328 -8 b 42 203 93 -8 42 39 l 42 507 b 186 640 42 578 97 635 l 136 736 b 163 956 104 799 107 901 b 379 1014 201 996 275 1014 b 624 826 539 1014 624 978 l 624 749 b 432 543 624 658 604 550 l 522 350 b 560 507 539 378 560 443 l 721 507 b 622 201 721 425 675 278 b 635 188 619 196 615 188 l 699 188 "},"'":{"ha":235,"x_min":0,"x_max":0,"o":"m 38 1006 l 197 1006 l 167 663 l 69 663 "},"(":{"ha":385,"x_min":0,"x_max":0,"o":"m 371 -56 l 229 -56 b 42 504 115 94 42 290 b 229 1065 42 721 115 913 l 371 1065 b 254 504 297 892 254 703 b 371 -56 254 306 294 118 "},")":{"ha":385,"x_min":0,"x_max":0,"o":"m 14 -56 b 131 504 90 118 131 306 b 14 1065 131 703 88 892 l 156 1065 b 343 504 269 913 343 721 b 156 -56 343 290 269 94 l 14 -56 "},"*":{"ha":538,"x_min":0,"x_max":0,"o":"m 493 771 l 419 643 l 306 756 l 346 600 l 192 600 l 231 756 l 118 643 l 44 771 l 213 811 l 44 851 l 118 979 l 231 863 l 192 1021 l 346 1021 l 304 863 l 419 979 l 493 851 l 322 811 "},"+":{"ha":686,"x_min":0,"x_max":0,"o":"m 42 575 l 272 575 l 272 806 l 413 806 l 413 575 l 644 575 l 644 435 l 413 435 l 413 204 l 272 204 l 272 435 l 42 435 "},",":{"ha":300,"x_min":0,"x_max":0,"o":"m 42 93 b 150 201 42 153 90 201 b 258 93 210 201 258 153 b 151 -99 258 31 200 -56 l 79 -99 b 124 -10 97 -71 114 -40 b 42 93 68 0 42 47 "},"-":{"ha":393,"x_min":0,"x_max":0,"o":"m 56 571 l 351 571 l 338 406 l 42 406 "},".":{"ha":300,"x_min":0,"x_max":0,"o":"m 42 93 b 150 201 42 153 90 201 b 258 93 210 201 258 153 b 150 -14 258 33 210 -14 b 42 93 90 -14 42 33 "},"/":{"ha":504,"x_min":0,"x_max":0,"o":"m 476 1017 l 172 -7 l 28 -7 l 331 1017 "},":":{"ha":300,"x_min":0,"x_max":0,"o":"m 42 617 b 150 725 42 676 90 725 b 258 617 210 725 258 676 b 150 510 258 557 210 510 b 42 617 90 510 42 557 m 42 97 b 150 206 42 157 90 206 b 258 97 210 206 258 157 b 150 -10 258 38 210 -10 b 42 97 90 -10 42 38 "},";":{"ha":300,"x_min":0,"x_max":0,"o":"m 42 617 b 150 725 42 676 90 725 b 258 617 210 725 258 676 b 150 510 258 557 210 510 b 42 617 90 510 42 557 m 42 93 b 124 -10 42 47 68 0 b 79 -99 114 -40 97 -71 l 151 -99 b 258 93 200 -56 258 31 b 150 201 258 153 210 201 b 42 93 90 201 42 153 "},"<":{"ha":585,"x_min":0,"x_max":0,"o":"m 42 442 l 42 568 l 536 833 l 536 668 l 194 506 l 536 342 l 536 176 "},"=":{"ha":593,"x_min":0,"x_max":0,"o":"m 49 456 l 544 456 l 544 321 l 49 321 m 49 689 l 544 689 l 544 556 l 49 556 "},">":{"ha":585,"x_min":0,"x_max":0,"o":"m 49 176 l 49 342 l 390 506 l 49 668 l 49 833 l 543 568 l 543 442 "},"?":{"ha":506,"x_min":0,"x_max":0,"o":"m 267 801 b 249 819 267 814 258 819 l 14 819 l 49 1007 l 347 1007 b 464 892 417 1007 464 961 l 464 526 b 354 421 464 468 429 421 l 247 421 l 247 264 l 81 264 l 81 531 b 139 588 81 563 110 588 l 247 588 b 267 607 265 588 267 593 m 58 93 b 167 201 58 153 107 201 b 275 93 226 201 275 153 b 167 -14 275 33 226 -14 b 58 93 107 -14 58 33 "},"@":{"ha":772,"x_min":0,"x_max":0,"o":"m 400 239 b 303 329 349 239 303 271 l 303 689 b 383 771 303 739 340 771 l 576 771 l 576 818 b 544 851 576 843 572 851 l 261 851 b 232 821 240 851 232 840 l 232 203 b 253 178 232 185 238 178 l 657 178 l 621 0 l 165 0 b 42 119 94 0 42 31 l 42 892 b 158 1007 42 958 85 1007 l 632 1007 b 731 914 693 1007 731 968 l 731 239 m 492 644 b 472 625 478 644 472 639 l 472 386 b 492 369 472 375 482 369 l 563 369 l 563 644 "},"[":{"ha":276,"x_min":0,"x_max":0,"o":"m 283 1108 l 283 1049 l 219 1049 l 219 -36 l 283 -36 l 283 -99 l 42 -99 l 42 1108 "},"\\":{"ha":504,"x_min":0,"x_max":0,"o":"m 174 1017 l 476 -7 l 332 -7 l 28 1017 "},"]":{"ha":276,"x_min":0,"x_max":0,"o":"m 235 1108 l 235 -99 l -7 -99 l -7 -36 l 57 -36 l 57 1049 l -7 1049 l -7 1108 "},"^":{"ha":972,"x_min":0,"x_max":0,"o":"m 486 886 l 249 433 l 56 433 l 404 1038 l 568 1038 l 917 433 l 724 433 "},"_":{"ha":531,"x_min":0,"x_max":0,"o":"m 42 -26 l 489 -26 l 489 -185 l 42 -185 "},"À":{"ha":607,"x_min":0,"x_max":0,"o":"m 235 125 l 217 0 l 14 0 l 196 1010 l 411 1010 l 593 0 l 390 0 l 372 125 m 257 285 l 350 285 l 304 644 m -17 1229 l 199 1229 l 379 1061 l 232 1061 "},"Á":{"ha":607,"x_min":0,"x_max":0,"o":"m 235 125 l 217 0 l 14 0 l 196 1010 l 411 1010 l 593 0 l 390 0 l 372 125 m 257 285 l 350 285 l 304 644 m 379 1058 l 232 1058 l 413 1226 l 628 1226 "},"Â":{"ha":607,"x_min":0,"x_max":0,"o":"m 235 125 l 217 0 l 14 0 l 196 1010 l 411 1010 l 593 0 l 390 0 l 372 125 m 257 285 l 350 285 l 304 644 m 385 1240 l 542 1058 l 378 1058 l 303 1158 l 228 1058 l 67 1058 l 222 1240 "},"Ã":{"ha":607,"x_min":0,"x_max":0,"o":"m 235 125 l 217 0 l 14 0 l 196 1010 l 411 1010 l 593 0 l 390 0 l 372 125 m 257 285 l 350 285 l 304 644 m 542 1228 b 404 1051 551 1124 508 1051 b 213 1108 321 1051 283 1108 b 161 1050 181 1108 161 1090 l 74 1050 b 219 1228 69 1160 132 1228 b 401 1168 296 1228 353 1168 b 454 1228 433 1168 457 1190 "},"Ä":{"ha":607,"x_min":0,"x_max":0,"o":"m 235 125 l 217 0 l 14 0 l 196 1010 l 411 1010 l 593 0 l 390 0 l 372 125 m 257 285 l 350 285 l 304 644 m 65 1150 b 168 1254 65 1207 110 1254 b 269 1150 225 1254 269 1207 b 168 1046 269 1093 225 1046 b 65 1150 110 1046 65 1093 m 340 1150 b 442 1254 340 1207 385 1254 b 544 1150 499 1254 544 1207 b 442 1046 544 1093 499 1046 b 340 1150 385 1046 340 1093 "},"Å":{"ha":607,"x_min":0,"x_max":0,"o":"m 235 125 l 217 0 l 14 0 l 196 1010 l 411 1010 l 593 0 l 390 0 l 372 125 m 257 285 l 350 285 l 304 644 m 163 1192 b 303 1335 163 1271 226 1335 b 446 1192 382 1335 446 1271 b 303 1051 446 1115 382 1051 b 163 1192 226 1051 163 1115 m 251 1192 b 303 1140 251 1164 275 1140 b 357 1192 332 1140 357 1164 b 303 1246 357 1221 332 1246 b 251 1192 275 1246 251 1221 "},"Æ":{"ha":883,"x_min":0,"x_max":0,"o":"m 271 125 l 229 0 l 14 0 l 385 1010 l 821 1010 l 856 822 l 636 822 l 636 581 l 803 581 l 803 407 l 636 407 l 636 188 l 847 188 l 813 0 l 435 0 l 435 125 m 322 285 l 435 285 l 435 644 "},"Ç":{"ha":488,"x_min":0,"x_max":0,"o":"m 146 -182 b 242 -215 167 -200 208 -215 b 307 -164 276 -215 307 -200 b 260 -119 307 -140 285 -119 b 204 -132 242 -119 224 -122 l 153 -101 l 222 0 l 196 0 b 42 153 81 0 42 42 l 42 886 b 164 1010 42 965 96 1010 l 425 1010 l 460 822 l 267 822 b 249 803 253 822 249 815 l 249 207 b 267 188 249 194 253 188 l 460 188 l 424 0 l 317 0 l 278 -62 b 317 -58 290 -60 304 -58 b 438 -165 383 -58 438 -96 b 276 -299 438 -256 358 -297 b 117 -253 221 -300 161 -285 "},"È":{"ha":496,"x_min":0,"x_max":0,"o":"m 42 1010 l 433 1010 l 468 822 l 249 822 l 249 581 l 415 581 l 415 407 l 249 407 l 249 188 l 460 188 l 425 0 l 42 0 m -58 1229 l 157 1229 l 338 1061 l 190 1061 "},"É":{"ha":496,"x_min":0,"x_max":0,"o":"m 42 0 l 425 0 l 460 188 l 249 188 l 249 407 l 415 407 l 415 581 l 249 581 l 249 822 l 468 822 l 433 1010 l 42 1010 m 321 1058 l 174 1058 l 354 1226 l 569 1226 "},"Ê":{"ha":496,"x_min":0,"x_max":0,"o":"m 42 0 l 425 0 l 460 188 l 249 188 l 249 407 l 415 407 l 415 581 l 249 581 l 249 822 l 468 822 l 433 1010 l 42 1010 m 329 1240 l 486 1058 l 322 1058 l 247 1158 l 172 1058 l 11 1058 l 167 1240 "},"Ë":{"ha":496,"x_min":0,"x_max":0,"o":"m 42 0 l 425 0 l 460 188 l 249 188 l 249 407 l 415 407 l 415 581 l 249 581 l 249 822 l 468 822 l 433 1010 l 42 1010 m 10 1150 b 113 1254 10 1207 54 1254 b 214 1150 169 1254 214 1207 b 113 1046 214 1093 169 1046 b 10 1150 54 1046 10 1093 m 285 1150 b 386 1254 285 1207 329 1254 b 489 1150 443 1254 489 1207 b 386 1046 489 1093 443 1046 b 285 1150 329 1046 285 1093 "},"Ì":{"ha":285,"x_min":0,"x_max":0,"o":"m 42 1010 l 243 1010 l 243 0 l 42 0 m -181 1229 l 35 1229 l 215 1061 l 68 1061 "},"Í":{"ha":285,"x_min":0,"x_max":0,"o":"m 42 0 l 243 0 l 243 1010 l 42 1010 m 217 1058 l 69 1058 l 250 1226 l 465 1226 "},"Î":{"ha":285,"x_min":0,"x_max":0,"o":"m 42 0 l 243 0 l 243 1010 l 42 1010 m 225 1240 l 382 1058 l 218 1058 l 143 1158 l 68 1058 l -93 1058 l 63 1240 "},"Ï":{"ha":285,"x_min":0,"x_max":0,"o":"m 42 0 l 243 0 l 243 1010 l 42 1010 m -96 1150 b 7 1254 -96 1207 -51 1254 b 108 1150 64 1254 108 1207 b 7 1046 108 1093 64 1046 b -96 1150 -51 1046 -96 1093 m 179 1150 b 281 1254 179 1207 224 1254 b 383 1150 338 1254 383 1207 b 281 1046 383 1093 338 1046 b 179 1150 224 1046 179 1093 "},"Ð":{"ha":618,"x_min":0,"x_max":0,"o":"m 28 588 l 56 588 l 56 1010 l 442 1010 b 576 875 532 1010 576 965 l 576 135 b 442 0 576 44 532 0 l 56 0 l 56 421 l 14 421 m 256 833 l 256 588 l 318 588 l 304 421 l 256 421 l 256 176 l 357 176 b 376 197 374 176 376 182 l 376 814 b 358 833 376 826 372 833 "},"Ñ":{"ha":585,"x_min":0,"x_max":0,"o":"m 42 0 l 228 0 l 228 421 l 336 0 l 543 0 l 543 1010 l 336 1010 l 336 603 l 233 1010 l 42 1010 m 532 1228 b 394 1051 542 1124 499 1051 b 203 1108 311 1051 274 1108 b 151 1050 171 1108 151 1090 l 64 1050 b 210 1228 60 1160 122 1228 b 392 1168 286 1228 343 1168 b 444 1228 424 1168 447 1190 "},"Ò":{"ha":606,"x_min":0,"x_max":0,"o":"m 263 833 b 244 814 249 833 244 826 l 244 197 b 264 176 244 182 247 176 l 340 176 b 360 197 357 176 360 182 l 360 814 b 342 833 360 826 356 833 m 564 143 b 421 0 564 67 533 0 l 185 0 b 42 143 72 0 42 67 l 42 879 b 176 1010 42 958 82 1010 l 429 1010 b 564 879 524 1010 564 958 m -14 1229 l 201 1229 l 382 1061 l 235 1061 "},"Ó":{"ha":606,"x_min":0,"x_max":0,"o":"m 263 833 b 244 814 249 833 244 826 l 244 197 b 264 176 244 182 247 176 l 340 176 b 360 197 357 176 360 182 l 360 814 b 342 833 360 826 356 833 m 564 143 b 421 0 564 67 533 0 l 185 0 b 42 143 72 0 42 67 l 42 879 b 176 1010 42 958 82 1010 l 429 1010 b 564 879 524 1010 564 958 m 371 1058 l 224 1058 l 404 1226 l 619 1226 "},"Ô":{"ha":606,"x_min":0,"x_max":0,"o":"m 263 833 b 244 814 249 833 244 826 l 244 197 b 264 176 244 182 247 176 l 340 176 b 360 197 357 176 360 182 l 360 814 b 342 833 360 826 356 833 m 564 143 b 421 0 564 67 533 0 l 185 0 b 42 143 72 0 42 67 l 42 879 b 176 1010 42 958 82 1010 l 429 1010 b 564 879 524 1010 564 958 m 385 1240 l 542 1058 l 378 1058 l 303 1158 l 228 1058 l 67 1058 l 222 1240 "},"Õ":{"ha":606,"x_min":0,"x_max":0,"o":"m 263 833 b 244 814 249 833 244 826 l 244 197 b 264 176 244 182 247 176 l 340 176 b 360 197 357 176 360 182 l 360 814 b 342 833 360 826 356 833 m 564 143 b 421 0 564 67 533 0 l 185 0 b 42 143 72 0 42 67 l 42 879 b 176 1010 42 958 82 1010 l 429 1010 b 564 879 524 1010 564 958 m 536 1228 b 399 1051 546 1124 503 1051 b 207 1108 315 1051 278 1108 b 156 1050 175 1108 156 1090 l 68 1050 b 214 1228 64 1160 126 1228 b 396 1168 290 1228 347 1168 b 449 1228 428 1168 451 1190 "},"Ö":{"ha":606,"x_min":0,"x_max":0,"o":"m 263 833 b 244 814 249 833 244 826 l 244 197 b 264 176 244 182 247 176 l 340 176 b 360 197 357 176 360 182 l 360 814 b 342 833 360 826 356 833 m 564 143 b 421 0 564 67 533 0 l 185 0 b 42 143 72 0 42 67 l 42 879 b 176 1010 42 958 82 1010 l 429 1010 b 564 879 524 1010 564 958 m 64 1150 b 167 1254 64 1207 108 1254 b 268 1150 224 1254 268 1207 b 167 1046 268 1093 224 1046 b 64 1150 108 1046 64 1093 m 339 1150 b 440 1254 339 1207 383 1254 b 543 1150 497 1254 543 1207 b 440 1046 543 1093 497 1046 b 339 1150 383 1046 339 1093 "},"×":{"ha":1108,"x_min":0,"x_max":0,"o":"m 746 336 b 315 336 603 300 460 300 b 531 190 351 275 424 190 b 746 336 633 190 708 275 m 833 472 l 228 472 l 301 356 b 758 356 454 319 606 321 m 449 629 b 385 779 425 679 415 736 b 307 735 374 793 301 742 l 407 610 b 449 629 413 603 451 624 m 582 515 l 531 639 l 481 515 m 753 735 b 676 779 758 742 686 793 b 613 629 643 736 633 679 b 654 610 607 624 649 603 m 913 515 b 531 133 913 306 740 133 b 147 515 321 133 147 306 b 531 897 147 726 321 897 b 913 515 740 897 913 726 m 940 515 b 531 926 940 742 757 926 b 118 515 304 926 118 742 b 531 104 118 290 304 104 b 940 515 757 104 940 290 m 982 144 l 946 144 l 946 49 l 919 49 l 919 144 l 885 144 l 885 167 l 982 167 m 1006 515 b 531 39 1006 254 792 39 b 56 515 269 39 56 254 b 531 992 56 778 269 992 b 1006 515 792 992 1006 778 m 1106 49 l 1085 49 l 1085 144 l 1061 49 l 1039 49 l 1015 144 l 1015 49 l 993 49 l 993 167 l 1028 167 l 1051 75 l 1071 167 l 1106 167 "},"Ø":{"ha":606,"x_min":0,"x_max":0,"o":"m 564 143 b 421 0 564 67 533 0 l 185 0 b 124 8 161 0 140 3 l 108 -28 l 44 1 l 65 49 b 42 143 47 75 42 107 l 42 879 b 176 1010 42 958 82 1010 l 429 1010 b 489 1000 453 1010 472 1007 l 506 1038 l 571 1008 l 546 954 b 564 879 558 933 564 908 m 260 833 b 242 814 246 833 242 826 l 242 429 l 363 744 l 363 814 b 344 833 363 826 358 833 m 343 176 b 363 197 360 176 363 182 l 363 556 l 242 242 l 242 197 b 261 176 242 182 244 176 l 343 176 "},"Ù":{"ha":604,"x_min":0,"x_max":0,"o":"m 194 0 b 42 151 79 0 42 40 l 42 1010 l 247 1010 l 247 199 b 267 176 247 183 250 176 l 338 176 b 357 199 354 176 357 183 l 357 1010 l 563 1010 l 563 151 b 410 0 563 40 525 0 m -14 1229 l 201 1229 l 382 1061 l 235 1061 "},"Ú":{"ha":604,"x_min":0,"x_max":0,"o":"m 194 0 b 42 151 79 0 42 40 l 42 1010 l 247 1010 l 247 199 b 267 176 247 183 250 176 l 338 176 b 357 199 354 176 357 183 l 357 1010 l 563 1010 l 563 151 b 410 0 563 40 525 0 m 369 1058 l 222 1058 l 403 1226 l 618 1226 "},"Û":{"ha":604,"x_min":0,"x_max":0,"o":"m 194 0 b 42 151 79 0 42 40 l 42 1010 l 247 1010 l 247 199 b 267 176 247 183 250 176 l 338 176 b 357 199 354 176 357 183 l 357 1010 l 563 1010 l 563 151 b 410 0 563 40 525 0 m 385 1240 l 542 1058 l 378 1058 l 303 1158 l 228 1058 l 67 1058 l 222 1240 "},"Ü":{"ha":604,"x_min":0,"x_max":0,"o":"m 194 0 b 42 151 79 0 42 40 l 42 1010 l 247 1010 l 247 199 b 267 176 247 183 250 176 l 338 176 b 357 199 354 176 357 183 l 357 1010 l 563 1010 l 563 151 b 410 0 563 40 525 0 m 64 1150 b 167 1254 64 1207 108 1254 b 268 1150 224 1254 268 1207 b 167 1046 268 1093 224 1046 b 64 1150 108 1046 64 1093 m 339 1150 b 440 1254 339 1207 383 1254 b 543 1150 497 1254 543 1207 b 440 1046 543 1093 497 1046 b 339 1150 383 1046 339 1093 "},"Ý":{"ha":626,"x_min":0,"x_max":0,"o":"m 419 0 l 207 0 l 207 256 l 14 1010 l 222 1010 l 313 532 l 404 1010 l 613 1010 l 419 256 m 385 1058 l 238 1058 l 418 1226 l 633 1226 "},"Œ":{"ha":815,"x_min":0,"x_max":0,"o":"m 753 1010 l 788 822 l 568 822 l 568 581 l 735 581 l 735 407 l 568 407 l 568 188 l 779 188 l 744 0 l 185 0 b 42 143 72 0 42 67 l 42 879 b 176 1010 42 958 82 1010 m 263 822 b 244 803 249 822 244 815 l 244 208 b 264 188 244 193 247 188 l 360 188 l 360 822 "},"Š":{"ha":536,"x_min":0,"x_max":0,"o":"m 92 0 l 56 188 l 272 188 b 296 208 290 188 296 193 l 296 392 b 258 421 296 419 286 421 l 154 421 b 42 535 94 421 42 435 l 42 879 b 176 1010 42 958 82 1010 l 456 1010 l 490 822 l 263 822 b 238 800 246 822 238 815 l 238 614 b 268 588 238 593 247 588 l 394 588 b 494 485 458 588 494 560 l 494 135 b 360 0 494 44 450 0 m 193 1058 l 38 1240 l 199 1240 l 274 1140 l 349 1240 l 513 1240 l 356 1058 "},"a":{"ha":607,"x_min":0,"x_max":0,"o":"m 235 125 l 217 0 l 14 0 l 196 1007 l 411 1007 l 593 0 l 390 0 l 372 125 m 257 285 l 350 285 l 304 642 "},"b":{"ha":606,"x_min":0,"x_max":0,"o":"m 242 831 l 242 567 l 336 567 b 361 593 350 567 361 575 l 361 811 b 343 831 361 824 357 831 m 364 385 b 333 414 364 407 351 414 l 242 414 l 242 176 l 343 176 b 364 197 360 176 364 182 m 554 608 b 485 506 554 558 538 519 b 564 417 540 503 564 461 l 564 156 b 407 0 564 44 522 0 l 42 0 l 42 1007 l 435 1007 b 554 885 514 1007 554 958 "},"c":{"ha":488,"x_min":0,"x_max":0,"o":"m 199 0 b 42 156 83 0 42 44 l 42 883 b 160 1007 42 963 93 1007 l 425 1007 l 460 819 l 267 819 b 249 800 253 819 249 813 l 249 207 b 267 188 249 194 253 188 l 460 188 l 424 0 "},"d":{"ha":597,"x_min":0,"x_max":0,"o":"m 242 831 l 242 176 l 336 176 b 356 197 353 176 356 182 l 356 811 b 338 831 356 824 351 831 m 556 156 b 399 0 556 44 514 0 l 42 0 l 42 1007 l 436 1007 b 556 885 515 1007 556 958 "},"e":{"ha":496,"x_min":0,"x_max":0,"o":"m 42 1007 l 433 1007 l 468 819 l 249 819 l 249 581 l 415 581 l 415 407 l 249 407 l 249 188 l 460 188 l 425 0 l 42 0 "},"f":{"ha":489,"x_min":0,"x_max":0,"o":"m 42 1007 l 433 1007 l 468 819 l 249 819 l 249 581 l 415 581 l 415 407 l 249 407 l 249 0 l 42 0 "},"g":{"ha":588,"x_min":0,"x_max":0,"o":"m 42 885 b 161 1007 42 958 82 1007 l 449 1007 l 483 819 l 263 819 b 244 800 249 819 244 813 l 244 203 b 263 183 244 190 249 183 l 354 183 l 354 581 l 550 581 l 550 0 l 199 0 b 42 156 83 0 42 44 "},"h":{"ha":604,"x_min":0,"x_max":0,"o":"m 563 0 l 357 0 l 357 403 l 247 403 l 247 0 l 42 0 l 42 1007 l 247 1007 l 247 576 l 357 576 l 357 1007 l 563 1007 "},"i":{"ha":285,"x_min":0,"x_max":0,"o":"m 42 1007 l 243 1007 l 243 0 l 42 0 "},"j":{"ha":588,"x_min":0,"x_max":0,"o":"m 38 581 l 233 581 l 233 200 b 251 181 233 188 238 181 l 325 181 b 343 201 339 181 343 189 l 343 819 l 125 819 l 160 1007 l 546 1007 l 546 144 b 410 0 546 65 497 0 l 171 0 b 38 129 92 0 38 50 "},"k":{"ha":603,"x_min":0,"x_max":0,"o":"m 247 575 l 278 575 l 381 1007 l 589 1007 l 468 543 l 588 0 l 367 0 l 288 415 l 247 415 l 247 0 l 42 0 l 42 1007 l 247 1007 l 247 575 "},"l":{"ha":472,"x_min":0,"x_max":0,"o":"m 42 1007 l 249 1007 l 249 188 l 451 188 l 417 0 l 42 0 "},"m":{"ha":729,"x_min":0,"x_max":0,"o":"m 238 475 l 238 0 l 42 0 l 42 1007 l 254 1007 l 364 582 l 474 1007 l 688 1007 l 688 0 l 492 0 l 492 475 l 364 72 "},"n":{"ha":585,"x_min":0,"x_max":0,"o":"m 42 1007 l 233 1007 l 336 603 l 336 1007 l 543 1007 l 543 0 l 336 0 l 228 421 l 228 0 l 42 0 "},"o":{"ha":606,"x_min":0,"x_max":0,"o":"m 263 831 b 244 811 249 831 244 824 l 244 197 b 264 176 244 182 247 176 l 340 176 b 360 197 357 176 360 182 l 360 811 b 342 831 360 824 356 831 m 564 143 b 419 0 564 67 532 0 l 186 0 b 42 143 74 0 42 67 l 42 876 b 178 1007 42 956 83 1007 l 428 1007 b 564 876 522 1007 564 956 "},"p":{"ha":594,"x_min":0,"x_max":0,"o":"m 242 831 l 242 435 l 342 435 b 361 456 358 435 361 440 l 361 811 b 343 831 361 824 357 831 m 438 1007 b 557 885 517 1007 557 958 l 557 403 b 414 268 557 326 526 268 l 242 268 l 242 0 l 42 0 l 42 1007 "},"q":{"ha":610,"x_min":0,"x_max":0,"o":"m 264 831 b 244 810 250 831 244 822 l 244 197 b 264 176 244 182 247 176 l 344 176 b 364 197 361 176 364 182 l 364 811 b 346 831 364 824 360 831 m 432 1007 b 568 876 526 1007 568 956 l 568 156 b 411 0 568 44 526 0 l 385 0 l 385 -81 l 224 -81 l 224 0 l 199 0 b 42 156 83 0 42 44 l 42 876 b 178 1007 42 956 83 1007 "},"r":{"ha":604,"x_min":0,"x_max":0,"o":"m 243 831 l 243 483 l 342 483 b 361 504 357 483 361 489 l 361 810 b 342 831 361 822 356 831 m 560 410 b 469 321 560 365 528 321 l 575 0 l 367 0 l 269 321 l 243 321 l 243 0 l 42 0 l 42 1007 l 424 1007 b 560 876 518 1007 560 956 "},"s":{"ha":536,"x_min":0,"x_max":0,"o":"m 92 0 l 56 188 l 272 188 b 296 208 290 188 296 193 l 296 392 b 258 421 296 419 286 421 l 154 421 b 42 535 94 421 42 435 l 42 876 b 178 1007 42 956 83 1007 l 456 1007 l 490 819 l 263 819 b 238 797 246 819 238 813 l 238 614 b 268 588 238 593 247 588 l 394 588 b 494 485 458 588 494 560 l 494 153 b 340 0 494 42 456 0 "},"t":{"ha":503,"x_min":0,"x_max":0,"o":"m 439 1007 l 489 819 l 354 819 l 354 0 l 149 0 l 149 819 l 14 819 l 67 1007 "},"u":{"ha":604,"x_min":0,"x_max":0,"o":"m 199 0 b 42 156 83 0 42 44 l 42 1007 l 247 1007 l 247 199 b 267 176 247 183 250 176 l 338 176 b 357 199 354 176 357 183 l 357 1007 l 563 1007 l 563 156 b 406 0 563 44 521 0 "},"v":{"ha":610,"x_min":0,"x_max":0,"o":"m 392 1007 l 596 1007 l 410 0 l 200 0 l 14 1007 l 218 1007 l 236 878 l 304 357 l 374 881 "},"w":{"ha":876,"x_min":0,"x_max":0,"o":"m 657 1007 l 863 1007 l 704 0 l 521 0 l 438 525 l 356 0 l 172 0 l 14 1007 l 219 1007 l 283 421 l 365 1007 l 511 1007 l 592 421 "},"x":{"ha":590,"x_min":0,"x_max":0,"o":"m 433 525 l 576 0 l 372 0 l 294 354 l 218 0 l 14 0 l 157 525 l 19 1007 l 219 1007 l 294 653 l 372 1007 l 571 1007 "},"y":{"ha":626,"x_min":0,"x_max":0,"o":"m 419 0 l 207 0 l 207 256 l 14 1007 l 222 1007 l 313 532 l 404 1007 l 613 1007 l 419 256 "},"z":{"ha":515,"x_min":0,"x_max":0,"o":"m 285 188 l 474 188 l 439 0 l 14 0 l 240 819 l 31 819 l 65 1007 l 501 1007 "},"A":{"ha":607,"x_min":0,"x_max":0,"o":"m 235 125 l 217 0 l 14 0 l 196 1007 l 411 1007 l 593 0 l 390 0 l 372 125 m 257 285 l 350 285 l 304 642 "},"B":{"ha":606,"x_min":0,"x_max":0,"o":"m 242 831 l 242 567 l 336 567 b 361 593 350 567 361 575 l 361 811 b 343 831 361 824 357 831 m 364 385 b 333 414 364 407 351 414 l 242 414 l 242 176 l 343 176 b 364 197 360 176 364 182 m 554 608 b 485 506 554 558 538 519 b 564 417 540 503 564 461 l 564 156 b 407 0 564 44 522 0 l 42 0 l 42 1007 l 435 1007 b 554 885 514 1007 554 958 "},"C":{"ha":488,"x_min":0,"x_max":0,"o":"m 199 0 b 42 156 83 0 42 44 l 42 883 b 160 1007 42 963 93 1007 l 425 1007 l 460 819 l 267 819 b 249 800 253 819 249 813 l 249 207 b 267 188 249 194 253 188 l 460 188 l 424 0 "},"А":{"ha":607,"x_min":0,"x_max":0,"o":"m 235 125 l 217 0 l 14 0 l 196 1010 l 411 1010 l 593 0 l 390 0 l 372 125 m 257 285 l 350 285 l 304 644 "},"Б":{"ha":599,"x_min":0,"x_max":0,"o":"m 343 176 b 361 196 357 176 361 183 l 361 429 b 342 450 361 444 358 450 l 242 450 l 242 176 m 42 1010 l 490 1010 l 525 822 l 242 822 l 242 617 l 421 617 b 557 486 515 617 557 565 l 557 129 b 421 0 557 50 515 0 l 42 0 "},"В":{"ha":606,"x_min":0,"x_max":0,"o":"m 242 833 l 242 567 l 336 567 b 361 593 350 567 361 575 l 361 814 b 343 833 361 826 357 833 m 364 385 b 333 414 364 407 351 414 l 242 414 l 242 176 l 343 176 b 364 197 360 176 364 182 m 554 608 b 485 506 554 558 538 519 b 564 417 540 503 564 461 l 564 156 b 407 0 564 44 522 0 l 42 0 l 42 1010 l 419 1010 b 554 875 510 1010 554 965 "},"Г":{"ha":482,"x_min":0,"x_max":0,"o":"m 42 1010 l 419 1010 l 454 822 l 249 822 l 249 0 l 42 0 "},"Д":{"ha":746,"x_min":0,"x_max":0,"o":"m 457 188 l 457 822 l 360 822 b 306 188 354 615 346 379 m 215 -149 l 28 -183 l 28 188 l 82 188 b 164 1010 106 208 164 593 l 663 1010 l 663 188 l 718 188 l 718 -149 l 531 -183 l 531 0 l 215 0 "},"Е":{"ha":496,"x_min":0,"x_max":0,"o":"m 42 1010 l 433 1010 l 468 822 l 249 822 l 249 581 l 415 581 l 415 407 l 249 407 l 249 188 l 460 188 l 425 0 l 42 0 "},"Ж":{"ha":1014,"x_min":0,"x_max":0,"o":"m 406 1010 l 608 1010 l 608 575 l 636 575 l 765 981 b 810 1010 772 1001 789 1010 l 958 1010 l 993 822 l 922 822 b 908 813 913 822 911 821 l 828 544 l 986 0 l 763 0 l 650 419 l 608 419 l 608 0 l 406 0 l 406 419 l 364 419 l 251 0 l 28 0 l 186 544 l 106 813 b 92 822 103 821 101 822 l 21 822 l 56 1010 l 204 1010 b 249 981 225 1010 242 1001 l 378 575 l 406 575 "},"З":{"ha":503,"x_min":0,"x_max":0,"o":"m 64 0 l 29 188 l 231 188 b 258 213 249 188 258 189 l 258 378 b 233 403 258 393 256 403 l 79 403 l 79 576 l 231 576 b 258 604 253 576 258 582 l 258 797 b 235 822 258 818 250 822 l 28 822 l 63 1010 l 321 1010 b 456 878 411 1010 456 968 l 456 596 b 378 507 456 550 443 513 b 461 407 446 507 461 461 l 461 135 b 326 0 461 44 417 0 "},"И":{"ha":618,"x_min":0,"x_max":0,"o":"m 247 389 l 371 968 l 371 1010 l 576 1010 l 576 0 l 371 0 l 371 619 l 247 42 l 247 0 l 42 0 l 42 1010 l 247 1010 "},"Й":{"ha":618,"x_min":0,"x_max":0,"o":"m 247 389 l 371 968 l 371 1010 l 576 1010 l 576 0 l 371 0 l 371 619 l 247 42 l 247 0 l 42 0 l 42 1010 l 247 1010 m 531 1240 b 310 1050 525 1076 419 1050 b 89 1240 199 1050 94 1076 l 211 1240 b 310 1140 211 1150 256 1140 b 408 1240 369 1140 408 1150 "},"К":{"ha":646,"x_min":0,"x_max":0,"o":"m 247 575 l 275 575 l 404 981 b 449 1010 411 1001 428 1010 l 597 1010 l 632 822 l 561 822 b 547 813 551 822 550 821 l 467 544 l 625 0 l 401 0 l 289 419 l 247 419 l 247 0 l 42 0 l 42 1010 l 247 1010 "},"Л":{"ha":672,"x_min":0,"x_max":0,"o":"m 631 0 l 425 0 l 425 822 l 315 822 l 315 0 l 49 0 l 14 188 l 110 188 l 110 1010 l 631 1010 "},"М":{"ha":729,"x_min":0,"x_max":0,"o":"m 238 475 l 238 0 l 42 0 l 42 1010 l 254 1010 l 364 582 l 474 1010 l 688 1010 l 688 0 l 492 0 l 492 475 l 364 72 "},"Н":{"ha":604,"x_min":0,"x_max":0,"o":"m 563 0 l 357 0 l 357 403 l 247 403 l 247 0 l 42 0 l 42 1010 l 247 1010 l 247 576 l 357 576 l 357 1010 l 563 1010 "},"О":{"ha":606,"x_min":0,"x_max":0,"o":"m 263 833 b 244 814 249 833 244 826 l 244 197 b 264 176 244 182 247 176 l 340 176 b 360 197 357 176 360 182 l 360 814 b 342 833 360 826 356 833 m 564 143 b 421 0 564 67 533 0 l 185 0 b 42 143 72 0 42 67 l 42 879 b 176 1010 42 958 82 1010 l 429 1010 b 564 879 524 1010 564 958 "},"П":{"ha":604,"x_min":0,"x_max":0,"o":"m 563 0 l 357 0 l 357 822 l 247 822 l 247 0 l 42 0 l 42 1010 l 563 1010 "},"Р":{"ha":594,"x_min":0,"x_max":0,"o":"m 242 833 l 242 435 l 342 435 b 361 456 358 435 361 440 l 361 814 b 343 833 361 826 357 833 m 557 399 b 421 268 557 319 515 268 l 242 268 l 242 0 l 42 0 l 42 1010 l 421 1010 b 557 881 515 1010 557 960 "},"С":{"ha":488,"x_min":0,"x_max":0,"o":"m 196 0 b 42 153 81 0 42 42 l 42 886 b 164 1010 42 965 96 1010 l 425 1010 l 460 822 l 267 822 b 249 803 253 822 249 815 l 249 207 b 267 188 249 194 253 188 l 460 188 l 424 0 "},"Т":{"ha":503,"x_min":0,"x_max":0,"o":"m 439 1010 l 489 822 l 354 822 l 354 0 l 149 0 l 149 822 l 14 822 l 67 1010 "},"У":{"ha":660,"x_min":0,"x_max":0,"o":"m 444 1010 l 646 1010 l 431 122 b 282 0 414 46 383 0 l 124 0 l 89 188 l 225 188 b 247 222 246 188 256 199 l 14 1010 l 228 1010 l 350 500 l 444 1010 "},"Ф":{"ha":811,"x_min":0,"x_max":0,"o":"m 318 83 l 178 83 b 42 215 92 83 42 128 l 42 794 b 178 926 42 882 92 926 l 318 926 l 318 1010 l 496 1010 l 496 926 l 633 926 b 769 794 719 926 769 882 l 769 215 b 633 83 769 128 719 83 l 496 83 l 496 0 l 318 0 m 575 728 b 556 749 575 743 572 749 l 496 749 l 496 261 l 557 261 b 575 281 571 261 575 268 m 239 282 b 258 261 239 267 242 261 l 318 261 l 318 749 l 257 749 b 239 729 243 749 239 742 "},"Х":{"ha":590,"x_min":0,"x_max":0,"o":"m 433 525 l 576 0 l 372 0 l 294 354 l 218 0 l 14 0 l 157 525 l 19 1010 l 219 1010 l 294 653 l 372 1010 l 571 1010 "},"Ц":{"ha":660,"x_min":0,"x_max":0,"o":"m 563 188 l 618 188 l 618 -149 l 431 -183 l 431 0 l 42 0 l 42 1010 l 247 1010 l 247 188 l 357 188 l 357 1010 l 563 1010 "},"Ч":{"ha":618,"x_min":0,"x_max":0,"o":"m 371 1010 l 576 1010 l 576 0 l 371 0 l 371 406 l 194 406 b 42 557 79 406 42 446 l 42 1010 l 247 1010 l 247 604 b 267 582 247 589 250 582 l 371 582 "},"Ш":{"ha":919,"x_min":0,"x_max":0,"o":"m 878 0 l 42 0 l 42 1010 l 247 1010 l 247 188 l 357 188 l 357 1010 l 563 1010 l 563 188 l 672 188 l 672 1010 l 878 1010 "},"Щ":{"ha":968,"x_min":0,"x_max":0,"o":"m 878 188 l 933 188 l 933 -149 l 746 -183 l 746 0 l 42 0 l 42 1010 l 247 1010 l 247 188 l 357 188 l 357 1010 l 563 1010 l 563 188 l 672 188 l 672 1010 l 878 1010 "},"Ъ":{"ha":743,"x_min":0,"x_max":0,"o":"m 382 617 l 565 617 b 701 486 660 617 701 565 l 701 129 b 565 0 701 50 660 0 l 176 0 l 176 822 l 14 822 l 67 1010 l 382 1010 m 486 176 b 504 196 500 176 504 183 l 504 429 b 485 450 504 444 501 450 l 382 450 l 382 176 "},"Ы":{"ha":894,"x_min":0,"x_max":0,"o":"m 853 0 l 647 0 l 647 1010 l 853 1010 m 247 617 l 431 617 b 567 486 525 617 567 565 l 567 129 b 431 0 567 50 525 0 l 42 0 l 42 1010 l 247 1010 m 351 176 b 369 196 365 176 369 183 l 369 429 b 350 450 369 444 367 450 l 247 450 l 247 176 "},"Ь":{"ha":608,"x_min":0,"x_max":0,"o":"m 247 617 l 431 617 b 567 486 525 617 567 565 l 567 129 b 431 0 567 50 525 0 l 42 0 l 42 1010 l 247 1010 m 351 176 b 369 196 365 176 369 183 l 369 429 b 350 450 369 444 367 450 l 247 450 l 247 176 "},"Э":{"ha":488,"x_min":0,"x_max":0,"o":"m 239 407 l 72 407 l 72 581 l 239 581 l 239 803 b 221 822 239 815 235 822 l 28 822 l 63 1010 l 324 1010 b 446 886 392 1010 446 965 l 446 153 b 292 0 446 42 407 0 l 64 0 l 28 188 l 221 188 b 239 207 235 188 239 194 "},"Ю":{"ha":917,"x_min":0,"x_max":0,"o":"m 875 143 b 732 0 875 67 844 0 l 496 0 b 353 143 383 0 353 67 l 353 417 l 243 417 l 243 0 l 42 0 l 42 1010 l 243 1010 l 243 592 l 353 592 l 353 879 b 488 1010 353 958 393 1010 l 740 1010 b 875 879 835 1010 875 958 m 574 833 b 556 814 560 833 556 826 l 556 197 b 575 176 556 182 558 176 l 651 176 b 671 197 668 176 671 182 l 671 814 b 653 833 671 826 667 833 "},"Я":{"ha":601,"x_min":0,"x_max":0,"o":"m 42 875 b 176 1010 42 965 86 1010 l 560 1010 l 560 0 l 363 0 l 363 318 l 336 318 b 282 251 299 318 290 283 l 221 0 l 15 0 l 81 254 b 135 328 88 285 103 317 b 42 413 85 328 42 361 m 260 833 b 240 813 246 833 240 825 l 240 504 b 260 483 240 489 244 483 l 363 483 l 363 833 "},"Ё":{"ha":496,"x_min":0,"x_max":0,"o":"m 42 0 l 425 0 l 460 188 l 249 188 l 249 407 l 415 407 l 415 581 l 249 581 l 249 822 l 468 822 l 433 1010 l 42 1010 m 10 1150 b 113 1254 10 1207 54 1254 b 214 1150 169 1254 214 1207 b 113 1046 214 1093 169 1046 b 10 1150 54 1046 10 1093 m 285 1150 b 386 1254 285 1207 329 1254 b 489 1150 443 1254 489 1207 b 386 1046 489 1093 443 1046 b 285 1150 329 1046 285 1093 "},"Α":{"ha":607,"x_min":0,"x_max":0,"o":"m 235 125 l 217 0 l 14 0 l 196 1010 l 411 1010 l 593 0 l 390 0 l 372 125 m 257 285 l 350 285 l 304 644 "},"Β":{"ha":606,"x_min":0,"x_max":0,"o":"m 242 833 l 242 567 l 336 567 b 361 593 350 567 361 575 l 361 814 b 343 833 361 826 357 833 m 364 385 b 333 414 364 407 351 414 l 242 414 l 242 176 l 343 176 b 364 197 360 176 364 182 m 554 608 b 485 506 554 558 538 519 b 564 417 540 503 564 461 l 564 156 b 407 0 564 44 522 0 l 42 0 l 42 1010 l 419 1010 b 554 875 510 1010 554 965 "},"Γ":{"ha":489,"x_min":0,"x_max":0,"o":"m 42 1010 l 433 1010 l 468 822 l 249 822 l 249 0 l 42 0 "},"Δ":{"ha":611,"x_min":0,"x_max":0,"o":"m 365 188 l 306 633 l 246 188 m 597 0 l 14 0 l 203 1010 l 408 1010 "},"∆":{"ha":611,"x_min":0,"x_max":0,"o":"m 246 188 l 306 633 l 365 188 m 408 1010 l 203 1010 l 14 0 l 597 0 "},"Ε":{"ha":496,"x_min":0,"x_max":0,"o":"m 42 1010 l 433 1010 l 468 822 l 249 822 l 249 581 l 415 581 l 415 407 l 249 407 l 249 188 l 460 188 l 425 0 l 42 0 "},"Ζ":{"ha":515,"x_min":0,"x_max":0,"o":"m 285 188 l 474 188 l 439 0 l 14 0 l 240 822 l 31 822 l 65 1010 l 501 1010 "},"Η":{"ha":604,"x_min":0,"x_max":0,"o":"m 563 0 l 357 0 l 357 403 l 247 403 l 247 0 l 42 0 l 42 1010 l 247 1010 l 247 576 l 357 576 l 357 1010 l 563 1010 "},"Θ":{"ha":606,"x_min":0,"x_max":0,"o":"m 242 199 b 263 176 242 183 246 176 l 344 176 b 364 199 360 176 364 183 l 364 424 l 242 424 m 364 813 b 344 833 364 826 358 833 l 261 833 b 242 813 249 833 242 826 l 242 586 l 364 586 m 564 143 b 421 0 564 67 533 0 l 185 0 b 42 143 72 0 42 67 l 42 879 b 176 1010 42 958 82 1010 l 429 1010 b 564 879 524 1010 564 958 "},"Ι":{"ha":290,"x_min":0,"x_max":0,"o":"m 44 1010 l 246 1010 l 246 0 l 44 0 "},"Κ":{"ha":603,"x_min":0,"x_max":0,"o":"m 247 575 l 278 575 l 381 1010 l 589 1010 l 468 543 l 588 0 l 367 0 l 288 415 l 247 415 l 247 0 l 42 0 l 42 1010 l 247 1010 l 247 575 "},"Λ":{"ha":606,"x_min":0,"x_max":0,"o":"m 303 606 l 222 0 l 14 0 l 194 1010 l 411 1010 l 592 0 l 383 0 "},"Μ":{"ha":729,"x_min":0,"x_max":0,"o":"m 238 475 l 238 0 l 42 0 l 42 1010 l 254 1010 l 364 582 l 474 1010 l 688 1010 l 688 0 l 492 0 l 492 475 l 364 72 "},"Ν":{"ha":585,"x_min":0,"x_max":0,"o":"m 42 1010 l 233 1010 l 336 603 l 336 1010 l 543 1010 l 543 0 l 336 0 l 228 421 l 228 0 l 42 0 "},"Ξ":{"ha":536,"x_min":0,"x_max":0,"o":"m 474 822 l 63 822 l 28 1010 l 508 1010 m 104 581 l 432 581 l 432 407 l 104 407 m 63 188 l 474 188 l 508 0 l 28 0 "},"Ο":{"ha":606,"x_min":0,"x_max":0,"o":"m 263 833 b 244 814 249 833 244 826 l 244 197 b 264 176 244 182 247 176 l 340 176 b 360 197 357 176 360 182 l 360 814 b 342 833 360 826 356 833 m 564 143 b 421 0 564 67 533 0 l 185 0 b 42 143 72 0 42 67 l 42 879 b 176 1010 42 958 82 1010 l 429 1010 b 564 879 524 1010 564 958 "},"Π":{"ha":604,"x_min":0,"x_max":0,"o":"m 563 0 l 357 0 l 357 822 l 247 822 l 247 0 l 42 0 l 42 1010 l 563 1010 "},"Ρ":{"ha":594,"x_min":0,"x_max":0,"o":"m 242 833 l 242 435 l 342 435 b 361 456 358 435 361 440 l 361 814 b 343 833 361 826 357 833 m 557 399 b 421 268 557 319 515 268 l 242 268 l 242 0 l 42 0 l 42 1010 l 421 1010 b 557 881 515 1010 557 960 "},"Σ":{"ha":531,"x_min":0,"x_max":0,"o":"m 464 0 l 14 0 l 175 504 l 19 1010 l 475 1010 l 510 822 l 293 822 l 401 504 l 294 188 l 499 188 "},"Τ":{"ha":503,"x_min":0,"x_max":0,"o":"m 439 1010 l 489 822 l 354 822 l 354 0 l 149 0 l 149 822 l 14 822 l 67 1010 "},"Υ":{"ha":626,"x_min":0,"x_max":0,"o":"m 419 0 l 207 0 l 207 256 l 14 1010 l 222 1010 l 313 532 l 404 1010 l 613 1010 l 419 256 "},"Φ":{"ha":783,"x_min":0,"x_max":0,"o":"m 318 0 l 182 0 b 46 132 96 0 46 44 l 46 878 b 182 1010 46 965 96 1010 l 318 1010 l 318 1051 l 468 1051 l 468 1010 l 601 1010 b 738 878 688 1010 738 965 l 738 132 b 601 0 738 44 688 0 l 468 0 l 468 -42 l 318 -42 m 543 811 b 524 832 543 826 540 832 l 468 832 l 468 178 l 525 178 b 543 197 539 178 543 185 m 243 199 b 263 178 243 183 246 178 l 318 178 l 318 832 l 261 832 b 243 813 247 832 243 825 "},"Χ":{"ha":590,"x_min":0,"x_max":0,"o":"m 433 525 l 576 0 l 372 0 l 294 354 l 218 0 l 14 0 l 157 525 l 19 1010 l 219 1010 l 294 653 l 372 1010 l 571 1010 "},"Ψ":{"ha":879,"x_min":0,"x_max":0,"o":"m 344 0 l 344 188 l 197 188 b 42 340 86 188 42 231 l 42 1010 l 240 1010 l 240 385 b 260 363 240 369 243 363 l 344 363 l 344 1010 l 535 1010 l 535 363 l 619 363 b 639 385 636 363 639 369 l 639 1010 l 838 1010 l 838 340 b 682 188 838 231 793 188 l 535 188 l 535 0 "},"Ω":{"ha":663,"x_min":0,"x_max":0,"o":"m 485 1010 b 619 878 569 1010 619 967 l 619 407 b 504 233 619 290 614 246 l 504 188 l 635 188 l 601 0 l 368 0 l 368 328 b 408 367 399 328 408 336 l 408 797 b 378 833 408 832 411 833 l 285 833 b 254 797 251 833 254 832 l 254 367 b 294 328 254 336 264 328 l 294 0 l 61 0 l 28 188 l 158 188 l 158 233 b 43 407 49 246 43 290 l 43 878 b 178 1010 43 967 93 1010 "},"Ω":{"ha":663,"x_min":0,"x_max":0,"o":"m 178 1010 b 43 878 93 1010 43 967 l 43 407 b 158 233 43 290 49 246 l 158 188 l 28 188 l 61 0 l 294 0 l 294 328 b 254 367 264 328 254 336 l 254 797 b 285 833 254 832 251 833 l 378 833 b 408 797 411 833 408 832 l 408 367 b 368 328 408 336 399 328 l 368 0 l 601 0 l 635 188 l 504 188 l 504 233 b 619 407 614 246 619 290 l 619 878 b 485 1010 619 967 569 1010 "}}}
